<?xml version="1.0" encoding="UTF-8" standalone="no"?><!DOCTYPE svg PUBLIC "-//W3C//DTD SVG 1.1//EN" "http://www.w3.org/Graphics/SVG/1.1/DTD/svg11.dtd"><svg width="100%" height="100%" viewBox="0 0 27400 30305" version="1.1" xmlns="http://www.w3.org/2000/svg" xmlns:xlink="http://www.w3.org/1999/xlink" xml:space="preserve" xmlns:serif="http://www.serif.com/" style="fill-rule:evenodd;clip-rule:evenodd;stroke-miterlimit:10;"><g id="Layer-1" serif:id="Layer 1"><path d="M13708.9,29811.5c-290.521,-114.6 -1349.42,-559.791 -2748.19,-1465.69c-1787.83,-1157.87 -3404.85,-2585.4 -4806.08,-4242.92c-1906.77,-2255.52 -3359.17,-4886.04 -4316.83,-7818.42c-1178.53,-3608.64 -1611.62,-7698.79 -1287.38,-12157.9c235.383,-152.9 1541.79,-975.313 3613.07,-1787.97c1340.9,-526.108 2735.33,-945.275 4144.53,-1245.85c1760.88,-375.588 3550.02,-566.042 5317.67,-566.042l144.338,0.246l0,-0.208l35.208,-0.038c1767.83,0 3557.07,190.454 5318,566.042c1409.25,300.575 2803.65,719.741 4144.5,1245.85c2071.2,812.658 3377.43,1635.07 3612.8,1787.97c324.237,4459.12 -108.838,8549.25 -1287.36,12157.9c-957.67,2932.38 -2410.07,5562.88 -4316.83,7818.42c-1401.27,1657.53 -3018.27,3085.07 -4806.12,4242.92c-1398.78,905.921 -2457.65,1351.09 -2748.87,1465.97l-5.887,2.259l-6.563,-2.538l0.021,0Z" style="fill:#dfb525;fill-rule:nonzero;"/><path d="M13729,430.892c-4.567,0 -9.1,0.033 -13.613,0.171c-4.496,-0.138 -9.046,-0.171 -13.596,-0.171c-9.129,0 -18.312,0.171 -27.308,0.171l0,0.158c-16.7,-0.034 -32.204,-0.054 -48.871,-0.054c-7784.71,0 -13167.1,3641.44 -13167.1,3641.44c-1448.04,19605.8 12037.5,25363.1 13216,25828c15.954,6.125 29.863,11.458 40.904,15.971c11.059,-4.513 24.967,-9.846 40.921,-15.971c1178.38,-464.813 14664,-6222.12 13216,-25828c0,0 -5381.58,-3641.51 -13167.1,-3641.44c-16.183,0 -32.658,0.021 -48.854,0.054l0,-0.158c-9.013,0 -18.179,-0.171 -27.308,-0.171m136.458,191.337c1740.14,4.234 3500.6,193.609 5233.75,563c1403.42,299.134 2792.19,716.304 4127.73,1239.97c1970.33,772.533 3246.09,1554.05 3561.72,1755.76c164.271,2296.58 127.329,4513.12 -109.929,6589.71c-219.463,1920.75 -615.263,3765.87 -1176.41,5484.12c-953.816,2920.59 -2400.21,5540.33 -4298.96,7786.38c-760.521,899.6 -1598.3,1743.25 -2490.05,2507.48c-730.871,626.354 -1503.04,1204.05 -2295.04,1716.96c-1348.12,873.092 -2377.2,1315.3 -2702.86,1445.7c-325.659,-130.4 -1354.72,-572.604 -2702.85,-1445.7c-792,-512.916 -1564.17,-1090.61 -2295.05,-1716.96c-891.754,-764.234 -1729.53,-1607.88 -2490.03,-2507.48c-1898.77,-2246.06 -3345.18,-4865.79 -4298.96,-7786.38c-561.167,-1718.25 -956.962,-3563.37 -1176.41,-5484.12c-237.259,-2076.6 -274.2,-4293.21 -109.929,-6589.79c314.704,-201.267 1583.77,-979.096 3550.47,-1751.25c1336.55,-524.758 2726.53,-942.883 4131.34,-1242.74c1735.61,-370.471 3498.73,-560.4 5241.38,-564.687l0,0.362l160.871,-0.346l139.254,0.171l0,-0.187" style="fill:#030405;fill-rule:nonzero;"/><path d="M521.467,10395.5c-91.459,-934.775 -153.888,-1948.14 -168.629,-3030.89c-16.18,-1186.6 27.187,-2292.74 106.2,-3305.9c0,0 5404.25,-3656.69 13216,-3641.39l0,-0.154c13.508,0 27.412,-0.4 40.921,0c13.487,-0.4 27.412,0 40.9,0l0,0.154c7811.71,-15.295 13216,3641.39 13216,3641.39c169.742,2297.86 134.308,4405.5 -62.396,6336.67c-2186.2,-1175.54 -6862.79,-3313.75 -13153.5,-3322.97c-6337.12,-9.288 -11047.7,2146.74 -13235.3,3323.08" style="fill:#030405;fill-rule:nonzero;"/><path d="M3158.17,19765.7c3676.09,7265.08 9738.29,9844.54 10510.8,10149.3c15.954,6.146 29.879,11.459 40.921,15.971c11.041,-4.512 24.946,-9.825 40.921,-15.971c773.312,-305.033 6846.88,-2889.36 10521.8,-10171.1l-21114.5,21.825l-0.008,-0.033Z" style="fill:#030405;fill-rule:nonzero;"/><path d="M18532.5,13513.4c4.479,31.491 11.179,82.779 16.442,149.671c-102.796,-10.905 -1114.05,-118.613 -1802.14,-219.742c-10.954,-43.367 -22.237,-81.508 -32.862,-114.254c-54.584,-170.259 -106.546,-251.125 -138.421,-419.946c-22.05,-115.971 -23.525,-214.375 -20.975,-280.329c15.279,-50.729 32.137,-103.404 51.321,-157.554c18.525,-52.725 37.587,-102.863 56.962,-150.884c-5.225,-0.783 -10.208,-1.6 -15.416,-2.379c5.208,0.779 10.433,1.354 15.416,2.154l0,0.225c39.15,5.921 99.304,14.792 172.829,24.671c47.292,6.354 278.3,37.1 519.567,57.046c569.288,47.1 670.554,-9.254 801.338,103.404c45.087,38.854 104.408,103.8 154.045,261.321c194.496,617.325 203.959,618.208 221.892,746.596m-134.183,1355.54c-256.979,-60.675 -944.325,-224.166 -1580.14,-386.321c3.525,-64.791 5.296,-109.233 6.058,-163.087c3.196,-220.834 -8.662,-423.508 -27.879,-603.804c167.9,17.033 340.85,37.691 518.384,62.204c128.245,17.954 253.475,37.187 375.641,57.433c288.979,55.971 577.709,111.942 866.425,167.917c-8.8,254.287 -47.55,438.871 -158.487,865.658m-287.779,1077.47c-11.217,43.525 -22.013,86.108 -32.363,127.483c-154.375,-47.154 -423.817,-129.917 -735.483,-227.692c-187.538,-58.716 -390.559,-122.866 -593.146,-187.987c0.937,-80.05 1.896,-160.346 2.85,-240.417c20.121,-271.146 36.092,-499.446 48.212,-673.091c310.034,73.541 664.08,151.666 1056.82,228.195c157.221,47.78 272.725,105.784 349.584,150.263c39.862,22.917 75.712,45.937 107.866,63.417c-92.121,344.566 -138.437,503.854 -204.341,759.829m-198.646,847.95c-54.238,114.687 -108.471,229.358 -162.467,344.254c-33.004,-150.817 -82.917,-258.662 -117.637,-323.508c-146.13,-272.879 -325.746,-351.65 -591.355,-673.904c-63.42,-76.755 -114.095,-146.096 -151.32,-200c110.92,30.729 246.858,68.991 401.112,112.879c0,0 35.729,10.037 529.6,202.587c61.371,23.925 127.325,50.559 187.154,110.663c-40.279,171.387 -71.666,316.316 -95.087,427.029m-1337.8,-2374.69c-176.996,-46.266 -344.758,-91.162 -491.388,-132.412c-271.633,-76.304 -596.162,-194.029 -912.675,-319.288c-104.929,-237.033 -210.85,-475.433 -312.237,-703.82c485.208,178.387 1294.22,336.891 1696.28,409.6c11.909,54.566 23.821,109.15 35.746,163.733c-4.967,193.492 -10.104,387.725 -15.729,582.187m-11.596,392.709c-7.933,260.175 -16.392,519.183 -25.575,777.012c-251.962,-82.062 -494.442,-163.246 -696.267,-234.287c-21.458,-7.621 -43.42,-15.484 -65.608,-23.8c-125.154,-281.996 -278.35,-627.138 -439.65,-990.696c536.404,169.808 989.354,286.579 989.354,286.579c76.6,19.704 157.225,40 241.65,60.663c-1.387,41.354 -2.533,82.95 -3.904,124.529m-481.704,2504.88c-51.996,46.371 -605.171,-493.35 -637.5,-525.208c-120.571,-117.83 -204.496,-210.017 -335.292,-354.93c-181.808,-201.458 -424.916,-472.433 -714.1,-801.062c168.509,85.937 396.392,216.875 641.442,409.412c677.846,531.596 1098.61,1224.9 1045.45,1271.79m-3870.75,-943.975c-498.383,-353.663 -807.725,-573.092 -1035.07,-829.896c15.275,6.163 30.571,12.325 46.317,17.533c164.742,54.655 326.458,127.1 495.696,157.78c378.333,68.679 754.55,137.429 1117.57,271.491c325.083,120.296 622.812,289.792 918.625,466.2c295.558,176.404 589.983,354.025 882.396,535.259c-714.755,3.991 -1694.25,-99.688 -2425.54,-618.367m205.313,-2799.65c-403.455,-199.913 -448.367,-217.95 -612.588,-311.579c-330.396,-188.367 -364.704,-238.821 -381.646,-269.496c-20.454,-36.929 -34.429,-79.029 -8.596,-381.025c26.513,-310.521 46.755,-329.304 67.9,-340.538c77.171,-41.233 186.284,8.213 815.33,293.109c378.037,170.916 449.095,203.07 510.45,290.275c54.429,77.016 58.958,207.187 66.041,464.325c9.709,354.791 -24.583,392.62 -61.716,406.458c-53.492,20 -110.313,-10.208 -395.175,-151.529m305.383,1402.83c-43.575,27.258 -85.954,-0.763 -376.283,-135.067c-306.825,-141.633 -482.209,-221.216 -482.209,-221.216c-71.058,-32.155 -184.704,-83.35 -322.133,-172.325c-109.496,-70.921 -137.846,-103.613 -156.579,-130.696c-48.838,-71.025 -54.6,-139.096 -60.921,-321.634c-13.471,-386.562 -0.017,-418.591 26.008,-432.812c50.433,-27.446 114.2,29.933 256.788,118.058c217.116,133.854 412.796,212.863 602.254,289.459c0,0 323.733,130.487 450.887,255.416c41.075,40.104 63.246,87.625 64.254,89.967c24.48,53.804 25.659,101.7 26.25,121.512c12.292,434.513 24.305,506.405 -28.316,539.338m-3077.78,-4956.54c-25.209,-8.521 -145.85,-50.083 -133.384,-72.462c2.117,-3.821 13.68,-17.05 125.588,-14.238c395.608,10 693.354,106.996 693.371,106.996c928.366,203.333 2670.52,636.683 2596.98,706.667c-26.913,25.625 -301.563,11.391 -552.883,-30c-271.563,-44.704 -465.225,-112.759 -547.117,-140.379c-691.338,-233.163 -1747.88,-409.446 -2182.55,-556.584m2295.58,-887.708c4.633,-35.779 197.046,-35.538 301.266,-55.833c59.88,-11.438 107.275,-21.092 305.8,-62.1c183.521,-37.742 371.075,-50.105 556.021,-79.375c28.667,-4.375 101.513,-16.196 166.634,22.725c17.779,10.575 30.4,22.258 38.42,30.279c0,0 145.155,135.504 233.263,233.246c47.829,52.658 11.129,17.379 235.175,322.204c20.4,27.729 56.546,76.721 42.883,93.875c-14.1,18.125 -75.087,-8.179 -92.762,-15.454c-273.438,-114.025 -575.259,-141.755 -862.154,-215.242c-196.475,-50.417 -281.317,-69.408 -553.263,-140.746c-178.437,-46.946 -356.458,-95.537 -361.925,-97.017l-0.246,0c-9.529,-2.791 -9.671,-31.595 -9.112,-36.562m1974.25,4294.5c-4.604,-36.233 -7.763,-71.079 -10.142,-104.063c-53.004,-172.9 -77.691,-322.329 -89.929,-433.404c-27.275,-245.208 -0.225,-361.458 43.246,-432.846c198.437,382.067 396.075,785.4 590.329,1209.62c-244.408,-106.633 -438.733,-195.592 -533.504,-239.304m1148.47,1692.53c-374.271,-211.404 -726.771,-428.887 -867.309,-568.279c-32.121,-32.121 -83.091,-55.4 -95.208,-114.083c-40.746,-198.521 -73.558,-398.938 -110.142,-615.067c6.234,3.125 12.467,6.25 18.7,9.358c111.388,54.809 220.729,104.48 326.892,149.53c97.779,41.266 201.2,82.137 307.187,121.995c151.596,347.084 291.2,686.496 419.88,1016.55m-421.513,-2856.09c302.434,-7.938 386.25,-31.634 623.613,-44.759c346.721,-19.391 611.2,7.067 931.562,38.975c79.55,7.829 124.359,13.35 214.429,26.284c-26.375,34.533 -61.183,86.791 -89.358,156.079c-57.45,142.171 -50.017,266.596 -45.504,332.341c7.829,113.317 37.725,207.346 67.637,277.067c46.009,103.471 90.921,217.829 131.913,342.933c-174.688,-47.045 -652.954,-181.962 -1796.53,-534.616c-97.588,-220 -187.084,-421.825 -262.692,-592.171c67.796,0.608 143.075,0.033 224.929,-2.133m-98.312,-3041.46c6.421,-6.321 14.721,-5.158 210.85,72.671c79.304,31.667 140.691,56.304 217.379,86.633c99.6,39.096 88.087,33.525 124.183,48.28c96.771,39.654 181.613,74.237 265.504,125.125c30.275,18.229 119.705,72.983 200.084,157.029c132.033,138.716 187.833,302.571 212.258,418.004c-101.163,-19.463 -230.8,-44.913 -381.633,-75.433c-214.929,-43.734 -269.859,-56.996 -338.871,-99.584c-39.688,-24.566 -75.921,-60.816 -79.546,-64.012c-77.658,-71.613 -120.521,-140.467 -137.625,-168.054c-184.321,-295.367 -328.608,-465.121 -292.583,-500.659m3703.89,2231.08c-435.866,-226.841 -1039.83,-541.266 -1368.05,-1082.19c-62,-101.825 -66.496,-174.392 -176.217,-292.988c-189.704,-205.016 -380.416,-412.846 -595.054,-589.983c-742.291,-612.55 -1628.35,-829.704 -2563.99,-895.242c-510.521,-35.762 -1018.9,-14.446 -1524.58,66.754c-411.908,66.163 -648.75,161.18 -1479.06,402.292c-540.279,157.05 -982.95,277.238 -1273.2,354.704c-506.525,19.846 -654.408,121.442 -685.033,219.863c-13.384,42.637 16.145,148.021 76.825,356.821c74.025,253.975 99.874,305.87 68.591,366.287c-56.737,110.017 -205.779,75.225 -305.779,159.129c-102.762,86.354 -155.437,302.275 24.979,850.121c-18.437,441.792 -160.258,661.042 -296.058,779.758c-162.029,141.7 -342.013,163.263 -363.4,303.196c-19.429,126.404 118.296,169.096 225.796,445.242c50.07,129.304 31.787,149.912 90.641,369.637c16.479,62.084 87.521,326.771 159.688,460.642c138.821,257.5 378.387,206.788 865.437,448.4c107.584,53.508 393.104,250.038 647.292,439.479c431.438,630.663 1910,2598.21 4440.96,3019.88c549.479,91.755 1057.86,95.225 1504.55,55.434c434.771,293.666 860.484,600.833 1272.4,928.458c114.113,90.85 239.079,101.108 371.996,53.296c54.442,-19.546 81.3,-61.421 87.463,-68.679c87.083,-105.242 34.533,-223.159 63.508,-377.95c26.946,-143.388 95.817,-169.5 168.612,-311.392c31.509,-61.146 61.525,-139.929 78.175,-240.033c111.809,-164.304 279.621,-511.321 395.384,-862.725c42.05,-127.538 90.279,-326.079 186.737,-723.646c70.521,-291.058 123.488,-529.638 168.279,-732.346c44.809,-202.933 90.904,-417.708 139.688,-653.8c117.829,-570.071 152.258,-788.058 122.412,-1081.1c-8.262,-80.275 -18.158,-136.162 -32.275,-214.375c-49.096,-273.125 -147.133,-669.479 -362.687,-1151.6l4.008,-0.12c54.617,-238.405 428.733,-264.742 445.121,-406.409c14.583,-122.483 -252.083,-222.775 -583.158,-394.825" style="fill:#030405;fill-rule:nonzero;"/><path d="M20580.9,18424c-26.021,0 -52.063,-9.983 -71.854,-29.95c-39.309,-39.671 -39.03,-103.733 0.641,-143.071c462.046,-457.987 852.413,-976.562 1160.31,-1541.37c245.241,-449.758 428.733,-900.125 560.9,-1376.79c148.612,-536.021 202.208,-964.705 218.316,-1124.13c38.75,-382.204 71.6,-1166.29 -143.47,-2123.28c-90.817,-404.183 -219.305,-805.762 -381.892,-1193.59c-21.633,-51.512 2.637,-110.8 54.167,-132.395c51.491,-21.58 110.816,2.654 132.429,54.183c167.137,398.75 299.271,811.717 392.708,1227.45c221.354,984.896 187.325,1793.61 147.346,2188.02c-16.633,164.566 -71.875,606.825 -224.638,1157.81c-136.337,491.738 -325.504,956.079 -578.212,1419.58c-317.308,582.034 -719.546,1116.41 -1195.52,1588.23c-19.721,19.55 -45.504,29.308 -71.233,29.308" style="fill:#030405;fill-rule:nonzero;"/><path d="M22699.9,10887.9c-11.737,37.188 -70.729,213.35 -238.771,346.508c-48.575,38.509 -165.587,131.234 -327.654,138.821c-8.021,0.384 -14.671,0.471 -19.096,0.488c104.929,-147.659 237.654,-361.842 346.579,-639.984c104.546,-266.908 122.813,-428.366 170.955,-426.387c65.641,2.687 154.095,307.758 67.987,580.554" style="fill:#030405;fill-rule:nonzero;"/><path d="M21493.3,11442.8c36.458,13.854 211.233,76.821 419.912,27.604c60.329,-14.221 205.642,-48.491 312.121,-170.904c5.275,-6.075 9.458,-11.217 12.221,-14.687c-180.921,-9.271 -431.25,-38.005 -716.996,-125.071c-274.204,-83.542 -412.171,-169.359 -440.487,-130.346c-38.575,53.158 145.85,311.754 413.229,413.404" style="fill:#030405;fill-rule:nonzero;"/><path d="M22009.5,17550c-36.213,14.425 -209.984,80.154 -419.425,34.271c-60.538,-13.283 -206.371,-45.246 -314.775,-165.975c-5.367,-5.988 -9.638,-11.058 -12.467,-14.479c180.767,-12.134 430.608,-44.825 714.933,-136.388c272.846,-87.883 409.442,-175.867 438.367,-137.325c39.425,52.55 -140.867,314.025 -406.633,419.896" style="fill:#030405;fill-rule:nonzero;"/><path d="M20816.5,16966.5c12.312,36.996 74.1,212.205 244.221,342.692c49.166,37.725 167.637,128.596 329.791,133.629c8.038,0.242 14.688,0.242 19.113,0.192c-107.254,-146.008 -243.35,-358.058 -356.667,-634.446c-108.75,-265.208 -129.546,-426.354 -177.654,-423.612c-65.609,3.733 -149.221,310.141 -58.804,581.545" style="fill:#030405;fill-rule:nonzero;"/><path d="M22993.4,11884.4c-12.725,36.858 -76.442,211.354 -248.021,339.966c-49.6,37.171 -169.046,126.717 -331.267,129.946c-8.021,0.159 -14.671,0.071 -19.096,-0.033c108.871,-144.792 247.309,-355.313 363.68,-630.433c111.7,-263.996 134.287,-424.896 182.362,-421.617c65.554,4.462 145.763,311.787 52.342,582.171" style="fill:#030405;fill-rule:nonzero;"/><path d="M21772.3,12406.6c36.058,14.825 209.079,82.479 419.025,38.904c60.679,-12.587 206.858,-42.933 316.583,-162.445c5.45,-5.921 9.771,-10.959 12.638,-14.342c-180.625,-14.15 -430.088,-49.6 -713.367,-144.325c-271.858,-90.9 -407.467,-180.396 -436.825,-142.188c-40.017,52.105 137.396,315.575 401.946,424.396" style="fill:#030405;fill-rule:nonzero;"/><path d="M23188.8,13058.5c-19.479,33.783 -115.034,193.087 -307.813,286.925c-55.729,27.137 -189.979,92.483 -349.875,64.983c-7.916,-1.371 -14.429,-2.708 -18.75,-3.629c134.271,-121.613 310.034,-302.171 476.334,-550.313c159.566,-238.108 212.187,-391.858 258.787,-379.55c63.504,16.792 84.183,333.75 -58.683,581.584" style="fill:#030405;fill-rule:nonzero;"/><path d="M21891,13340.4c32.604,21.37 189.704,120.521 404.079,117.429c61.996,-0.904 211.267,-3.054 341.617,-99.671c6.458,-4.775 11.667,-8.887 15.104,-11.683c-174.671,-48.038 -412.937,-130.034 -673.196,-276.617c-249.775,-140.642 -366.025,-254.183 -402.066,-222.187c-49.134,43.595 75.241,335.854 314.462,492.729" style="fill:#030405;fill-rule:nonzero;"/><path d="M23206,14222.3c-23.925,30.784 -140.488,175.454 -344.342,241.913c-58.925,19.2 -200.867,65.483 -355.467,16.267c-7.658,-2.45 -13.908,-4.655 -18.091,-6.18c149.721,-102 348.629,-256.687 547.466,-479.604c190.796,-213.921 264.042,-358.975 308.488,-340.379c60.608,25.346 37.517,342.133 -138.054,567.983" style="fill:#030405;fill-rule:nonzero;"/><path d="M21881.8,14323.2c29.338,25.658 171.334,145.45 384.113,171.858c61.512,7.638 209.671,26.004 352.05,-51.771c7.067,-3.837 12.796,-7.204 16.579,-9.496c-166.425,-71.6 -391.146,-185.558 -628.783,-366.512c-228.075,-173.646 -327.604,-302.084 -367.709,-275.363c-54.671,36.438 28.367,343.021 243.75,531.284" style="fill:#030405;fill-rule:nonzero;"/><path d="M22985,15369.1c-28.317,26.809 -165.45,152.121 -377.03,186.896c-61.166,10.05 -208.491,34.271 -353.837,-37.833c-7.204,-3.559 -13.058,-6.7 -16.929,-8.834c163.454,-78.125 383.525,-200.854 613.837,-391.062c221.042,-182.5 315.417,-314.771 356.546,-289.65c56.075,34.254 -14.792,343.871 -222.587,540.483" style="fill:#030405;fill-rule:nonzero;"/><path d="M21660.8,15268c25.121,29.809 147.292,169.754 353.63,228.125c59.633,16.854 203.3,57.5 355.833,2.221c7.55,-2.762 13.717,-5.208 17.829,-6.908c-153.646,-95.992 -358.487,-242.692 -565.954,-457.604c-199.096,-206.234 -278.021,-348.267 -321.7,-327.938c-59.567,27.729 -23.979,343.354 160.362,562.104" style="fill:#030405;fill-rule:nonzero;"/><path d="M22525.1,16562.3c-33.629,19.704 -195.554,110.783 -409.512,96.841c-61.842,-4.029 -210.833,-13.733 -336.129,-116.804c-6.217,-5.104 -11.2,-9.5 -14.496,-12.45c176.875,-39.15 418.992,-108.992 686.333,-242.204c256.546,-127.846 378.404,-235.346 412.779,-201.579c46.892,46.025 -92.116,331.612 -338.975,476.196" style="fill:#030405;fill-rule:nonzero;"/><path d="M21258,16164.5c17.725,34.721 105.142,198.646 292.917,302.133c54.287,29.917 185.054,101.963 346.146,82.571c7.97,-0.954 14.516,-1.962 18.891,-2.675c-127.954,-128.246 -294.341,-317.446 -447.867,-573.679c-147.341,-245.883 -192.116,-402.083 -239.27,-392.154c-64.288,13.541 -100.938,329.046 29.183,583.804" style="fill:#030405;fill-rule:nonzero;"/><path d="M22052.9,10501.5c41.162,126.788 80.366,358.3 -2.675,402.1c-63.488,33.471 -172.742,-56.32 -231.354,-104.496c-65.209,-53.595 -149.321,-142.95 -236.213,-337.812c-91.65,-205.538 -175.954,-506.058 -109.829,-539.929c10.383,-5.313 24.5,-4.117 95.504,39.216c106.546,65.034 176.633,107.813 262.867,198.871c66.091,69.759 167.341,174.704 221.7,342.05" style="fill:#030405;fill-rule:nonzero;"/><path d="M6849.92,18424c-25.746,0 -51.496,-9.758 -71.217,-29.308c-475.988,-471.854 -878.229,-1006.21 -1195.54,-1588.23c-252.708,-463.542 -441.858,-927.88 -578.195,-1419.58c-152.725,-550.796 -207.984,-993.175 -224.65,-1157.81c-39.984,-394.442 -73.98,-1203.23 147.341,-2188.02c93.471,-415.813 225.592,-828.783 392.742,-1227.45c21.6,-51.529 80.871,-75.783 132.396,-54.183c51.529,21.612 75.8,80.883 54.187,132.396c-162.554,387.758 -291.062,789.337 -381.912,1193.59c-215.05,956.913 -182.204,1741.03 -143.471,2123.27c16.146,159.496 69.758,588.312 218.333,1124.15c132.171,476.616 315.642,926.979 560.884,1376.79c307.9,564.771 698.283,1083.37 1160.31,1541.37c39.688,39.338 39.95,103.4 0.625,143.071c-19.771,19.967 -45.796,29.95 -71.837,29.95" style="fill:#030405;fill-rule:nonzero;"/><path d="M4730.96,10887.9c11.734,37.188 70.746,213.35 238.784,346.508c48.575,38.509 165.591,131.234 327.637,138.821c8.038,0.384 14.671,0.471 19.117,0.488c-104.934,-147.659 -237.658,-361.842 -346.6,-639.984c-104.529,-266.908 -122.792,-428.366 -170.938,-426.387c-65.641,2.687 -154.095,307.758 -68,580.554" style="fill:#030405;fill-rule:nonzero;"/><path d="M5937.58,11442.8c-36.441,13.854 -211.233,76.821 -419.912,27.604c-60.313,-14.221 -205.642,-48.491 -312.117,-170.904c-5.262,-6.075 -9.446,-11.217 -12.225,-14.687c180.921,-9.271 431.25,-38.005 716.996,-125.071c274.204,-83.542 412.171,-169.359 440.488,-130.346c38.595,53.158 -145.834,311.754 -413.23,413.404" style="fill:#030405;fill-rule:nonzero;"/><path d="M5421.33,17550c36.217,14.425 209.984,80.154 419.425,34.271c60.542,-13.283 206.375,-45.246 314.775,-165.975c5.367,-5.988 9.638,-11.058 12.467,-14.479c-180.762,-12.134 -430.592,-44.825 -714.929,-136.388c-272.85,-87.883 -409.446,-175.867 -438.371,-137.325c-39.425,52.55 140.888,314.025 406.633,419.896" style="fill:#030405;fill-rule:nonzero;"/><path d="M6614.33,16966.5c-12.325,36.996 -74.116,212.205 -244.22,342.692c-49.184,37.725 -167.655,128.596 -329.809,133.629c-8.037,0.242 -14.671,0.242 -19.112,0.192c107.254,-146.008 243.35,-358.058 356.666,-634.446c108.75,-265.208 129.546,-426.354 177.671,-423.612c65.592,3.733 149.221,310.141 58.804,581.545" style="fill:#030405;fill-rule:nonzero;"/><path d="M4437.46,11884.4c12.725,36.858 76.459,211.354 248.021,339.966c49.6,37.171 169.063,126.717 331.267,129.946c8.037,0.159 14.671,0.071 19.117,-0.033c-108.871,-144.792 -247.309,-355.313 -363.7,-630.433c-111.684,-263.996 -134.288,-424.896 -182.359,-421.617c-65.558,4.462 -145.766,311.787 -52.346,582.171" style="fill:#030405;fill-rule:nonzero;"/><path d="M5658.58,12406.6c-36.058,14.825 -209.079,82.479 -419.008,38.904c-60.696,-12.587 -206.875,-42.933 -316.617,-162.445c-5.433,-5.921 -9.754,-10.959 -12.621,-14.342c180.625,-14.15 430.071,-49.6 713.371,-144.325c271.854,-90.9 407.463,-180.396 436.821,-142.188c40.017,52.105 -137.396,315.575 -401.946,424.396" style="fill:#030405;fill-rule:nonzero;"/><path d="M4242.08,13058.5c19.479,33.783 115.034,193.087 307.829,286.925c55.713,27.137 189.967,92.483 349.863,64.983c7.917,-1.371 14.425,-2.708 18.75,-3.629c-134.271,-121.613 -310.038,-302.171 -476.321,-550.313c-159.6,-238.108 -212.204,-391.858 -258.804,-379.55c-63.521,16.792 -84.183,333.75 58.683,581.584" style="fill:#030405;fill-rule:nonzero;"/><path d="M5539.88,13340.4c-32.604,21.37 -189.704,120.521 -404.096,117.429c-61.979,-0.904 -211.266,-3.054 -341.612,-99.671c-6.442,-4.775 -11.65,-8.887 -15.105,-11.683c174.667,-48.038 412.934,-130.034 673.209,-276.617c249.758,-140.642 366.008,-254.183 402.066,-222.187c49.134,43.595 -75.258,335.854 -314.462,492.729" style="fill:#030405;fill-rule:nonzero;"/><path d="M4224.79,14222.3c23.925,30.784 140.487,175.454 344.341,241.913c58.942,19.2 200.888,65.483 355.488,16.267c7.637,-2.45 13.904,-4.655 18.071,-6.18c-149.721,-102 -348.63,-256.687 -547.446,-479.604c-190.8,-213.921 -264.046,-358.975 -308.508,-340.379c-60.609,25.346 -37.5,342.133 138.054,567.983" style="fill:#030405;fill-rule:nonzero;"/><path d="M5549.04,14323.2c-29.359,25.658 -171.338,145.45 -384.117,171.858c-61.508,7.638 -209.688,26.004 -352.067,-51.771c-7.062,-3.837 -12.775,-7.204 -16.562,-9.496c166.408,-71.6 391.129,-185.558 628.787,-366.512c228.071,-173.646 327.604,-302.084 367.709,-275.363c54.67,36.438 -28.371,343.021 -243.75,531.284" style="fill:#030405;fill-rule:nonzero;"/><path d="M4445.83,15369.1c28.317,26.809 165.471,152.121 377.05,186.896c61.146,10.05 208.471,34.271 353.817,-37.833c7.208,-3.559 13.058,-6.7 16.929,-8.834c-163.454,-78.125 -383.508,-200.854 -613.837,-391.062c-221.025,-182.5 -315.417,-314.771 -356.546,-289.65c-56.058,34.254 14.808,343.871 222.587,540.483" style="fill:#030405;fill-rule:nonzero;"/><path d="M5770.04,15268c-25.121,29.809 -147.309,169.754 -353.63,228.125c-59.633,16.854 -203.295,57.5 -355.833,2.221c-7.55,-2.762 -13.712,-5.208 -17.829,-6.908c153.646,-95.992 358.492,-242.692 565.975,-457.604c199.079,-206.234 278,-348.267 321.683,-327.938c59.567,27.729 23.975,343.354 -160.366,562.104" style="fill:#030405;fill-rule:nonzero;"/><path d="M4905.75,16562.3c33.646,19.704 195.575,110.783 409.533,96.841c61.838,-4.029 210.817,-13.733 336.13,-116.804c6.195,-5.104 11.179,-9.5 14.495,-12.45c-176.891,-39.15 -418.995,-108.992 -686.354,-242.204c-256.546,-127.846 -378.387,-235.346 -412.779,-201.579c-46.875,46.025 92.138,331.612 338.975,476.196" style="fill:#030405;fill-rule:nonzero;"/><path d="M6172.83,16164.5c-17.725,34.721 -105.12,198.646 -292.916,302.133c-54.288,29.917 -185.054,101.963 -346.13,82.571c-7.987,-0.954 -14.529,-1.962 -18.904,-2.675c127.95,-128.246 294.338,-317.446 447.88,-573.679c147.329,-245.883 192.099,-402.083 239.27,-392.154c64.271,13.541 100.938,329.046 -29.2,583.804" style="fill:#030405;fill-rule:nonzero;"/><path d="M5377.96,10501.5c-41.162,126.788 -80.345,358.3 2.675,402.1c63.488,33.471 172.742,-56.32 231.355,-104.496c65.225,-53.595 149.32,-142.95 236.216,-337.812c91.646,-205.538 175.954,-506.058 109.842,-539.929c-10.384,-5.313 -24.513,-4.117 -95.521,39.216c-106.546,65.034 -176.633,107.813 -262.883,198.871c-66.075,69.759 -167.342,174.704 -221.684,342.05" style="fill:#030405;fill-rule:nonzero;"/><path d="M6494.79,22374.6l0,-786.646l571.979,0l0,202.271l-335.954,0l0,102.242l293.283,0l0,179.808l-293.283,0l0,100.017l335.954,0l0,202.308l-571.979,0Z" style="fill:#fff;fill-rule:nonzero;"/><path d="M7322.04,22097c15.745,71.925 61.858,110.121 139.358,110.121c53.958,0 92.154,-17.971 92.154,-56.18c0,-19.1 -10.121,-43.837 -66.337,-61.808l-88.734,-33.696c-38.245,-12.362 -229.237,-62.971 -231.529,-230.383c0,-151.717 128.163,-249.496 300.054,-249.496c148.367,0 242.78,73.038 287.692,204.55l-188.767,53.938c-15.729,-43.834 -38.195,-78.68 -94.412,-78.68c-38.246,0 -74.2,15.746 -74.2,49.463c0,22.467 15.746,42.675 64.079,59.55l87.675,30.362c175.296,60.659 230.4,137.084 233.75,248.334c0,167.466 -150.592,243.854 -321.425,243.854c-182.029,0 -305.658,-87.638 -329.237,-246.092l189.879,-43.837Z" style="fill:#fff;fill-rule:nonzero;"/><path d="M8479.67,21588l0,202.255l-213.521,0l0,584.395l-231.513,0l0,-584.395l-208.975,0l0,-202.255l654.009,0Z" style="fill:#fff;fill-rule:nonzero;"/><path d="M8598.92,22161.1c73.037,0 130.383,48.35 130.383,114.655c0,64.045 -57.346,111.233 -130.383,111.233c-75.28,0 -129.221,-47.188 -129.221,-111.233c0,-66.305 53.941,-114.655 129.221,-114.655" style="fill:#fff;fill-rule:nonzero;"/><path d="M18070.1,22198.2c47.238,-6.717 152.813,-7.863 157.342,-7.863l147.22,0l0,184.321l-622.62,0l-19.096,-134.858l285.45,-255.088c59.533,-52.829 100.054,-95.537 100.054,-153.991c0,-44.917 -40.521,-70.767 -87.675,-70.767c-59.6,0 -89.879,30.329 -89.879,88.733l-216.909,0c0,-139.321 87.675,-273.054 312.396,-273.054c176.459,0 303.438,101.129 303.438,262.95c0,107.883 -73.054,202.308 -149.446,265.225l-120.275,94.392Z" style="fill:#fff;fill-rule:nonzero;"/><path d="M18810.8,21759.9c-84.308,0 -134.812,93.266 -134.812,221.375c0,125.85 50.504,221.387 134.812,221.387c84.305,0 138.263,-95.537 138.263,-221.387c0,-128.109 -53.958,-221.375 -138.263,-221.375m0,627.05c-225.92,0 -360.729,-182.05 -360.729,-405.675c0,-224.759 134.809,-405.696 360.729,-405.696c223.609,0 364.096,180.937 364.096,405.696c0,223.625 -140.487,405.675 -364.096,405.675" style="fill:#fff;fill-rule:nonzero;"/><path d="M19595.4,22198.2c47.238,-6.717 152.883,-7.863 157.342,-7.863l147.225,0l0,184.321l-622.538,0l-19.112,-134.858l285.45,-255.088c59.55,-52.829 99.983,-95.537 99.983,-153.991c0,-44.917 -40.433,-70.767 -87.675,-70.767c-59.513,0 -89.896,30.329 -89.896,88.733l-216.891,0c0,-139.321 87.675,-273.054 312.483,-273.054c176.371,0 303.333,101.129 303.333,262.95c0,107.883 -73.037,202.308 -149.425,265.225l-120.279,94.392Z" style="fill:#fff;fill-rule:nonzero;"/><path d="M20336.2,21759.9c-84.304,0 -134.913,93.266 -134.913,221.375c0,125.85 50.609,221.387 134.913,221.387c84.237,0 138.179,-95.537 138.179,-221.387c0,-128.109 -53.942,-221.375 -138.179,-221.375m0,627.05c-225.917,0 -360.813,-182.05 -360.813,-405.675c0,-224.759 134.896,-405.696 360.813,-405.696c223.595,0 364.1,180.937 364.1,405.696c0,223.625 -140.504,405.675 -364.1,405.675" style="fill:#fff;fill-rule:nonzero;"/><g><path d="M25213.2,5636.38c14.392,-64.288 14.617,-126.108 0.675,-183.887c-14.15,-57.78 -46.546,-113.526 -96.217,-166.13c-49.912,-52.171 -124.754,-100.712 -222.775,-143.662l-697.587,-306.404c-2.692,-1.113 -6.058,0 -7.396,2.916l-821.233,1869.95c-0.45,1.354 -0.45,2.917 0,4.271c0.45,1.354 1.579,2.467 2.933,3.142l697.346,306.183c98.229,43.175 184.775,66.317 257.171,69.25c6.75,0.229 13.037,0.229 19.562,0.229c64.517,0 120.938,-12.587 167.938,-37.554c51.475,-27.637 95.971,-68.783 132.166,-122.292c35.992,-53.279 69.255,-114.2 98.475,-180.954l403.071,-917.675c29.446,-66.996 51.496,-133.316 65.871,-197.379m332.725,-362.396c64.738,164.342 44.721,368.021 -59.583,605.417l-474.567,1080.42c-104.304,237.395 -240.762,390.262 -405.554,453.666c-164.55,63.608 -368.667,42.933 -606.304,-61.6l-970.938,-426.458c-34.825,-15.296 -56.196,-35.746 -63.158,-60.713c-7.413,-25.171 -1.579,-59.562 17.083,-102.046l985.329,-2243.8c18.646,-42.483 40.225,-69.912 63.838,-81.82c23.158,-11.459 52.604,-9.671 87.221,5.624l971.179,426.459c237.604,104.304 390.921,240.537 455.454,404.858" style="fill:#fff;fill-rule:nonzero;"/><path d="M24792.2,5719.12c25.641,-58.663 33.279,-107.221 22.483,-144.775c-10.783,-37.758 -40.471,-67.446 -87.9,-88.35l-342.829,-150.625c-2.933,-1.113 -6.304,0 -7.413,2.933l-517.066,1177.31c-0.679,1.354 -0.679,2.916 -0.209,4.27c0.675,1.355 1.579,2.467 2.917,3.142l343.037,150.625c24.967,11.008 48.559,16.408 70.609,16.408c19.546,0 37.983,-4.27 54.841,-13.262c35.296,-18.421 66.113,-57.554 91.946,-116.217l369.584,-841.458Zm374.983,-252.9c13.263,51.929 13.488,108.125 0.883,167.258c-12.566,60.017 -32.812,121.613 -59.791,183.213l-403.071,917.654c-26.963,61.371 -58.004,117.587 -92.171,166.804c-33.492,48.563 -74.183,85.438 -120.712,109.479c-46.321,24.063 -102.742,34.846 -167.726,31.929c-65.175,-2.916 -144.55,-24.72 -235.816,-64.758l-663.404,-291.337l786.375,-1790.35l663.4,291.337c89.029,39.342 157.587,82.95 203.454,130.4c45.4,46.979 75.312,96.875 88.579,148.367" style="fill:#fff;fill-rule:nonzero;"/><path d="M24814.7,5574.33c10.8,37.55 3.162,86.092 -22.484,144.771l-369.583,841.458c-25.833,58.667 -56.646,97.78 -91.942,116.217c-16.858,8.992 -35.295,13.263 -54.845,13.263c-22.046,0 -45.642,-5.396 -70.588,-16.404l-343.058,-150.625c-1.338,-0.68 -2.238,-1.788 -2.917,-3.142c-0.467,-1.354 -0.467,-2.933 0.208,-4.271l517.067,-1177.31c1.113,-2.938 4.479,-4.063 7.413,-2.938l342.85,150.625c47.412,20.904 77.1,50.592 87.879,88.354m-942.846,940.588l337.9,148.371c44.287,19.562 83.175,20.691 115.762,3.591c32.83,-17.308 62.05,-54.616 86.771,-110.833l369.584,-841.442c24.741,-56.195 32.154,-102.291 22.05,-137.133c-9.896,-34.392 -37.33,-61.825 -81.617,-81.146l-337.879,-148.387l-512.571,1166.98Z" style="fill:#030405;fill-rule:nonzero;"/><path d="M24324.6,7042.54c64.963,2.916 121.388,-7.867 167.709,-31.93c46.541,-24.041 87.237,-60.916 120.708,-109.479c34.188,-49.216 65.208,-105.433 92.188,-166.804l403.075,-917.654c26.962,-61.6 47.204,-123.196 59.791,-183.212c12.604,-59.134 12.379,-115.33 -0.904,-167.259c-13.246,-51.491 -43.158,-101.387 -88.558,-148.366c-45.867,-47.45 -114.425,-91.059 -203.454,-130.4l-663.405,-291.338l-786.37,1790.35l663.404,291.354c91.266,40.021 170.625,61.825 235.816,64.742m674.875,-1802.28c34.621,22.258 63.838,45.641 87.209,69.687c47.012,48.334 77.566,100.033 91.283,153.542c13.696,53.508 14.167,111.512 1.129,172.429c-12.829,60.471 -33.058,122.971 -60.487,185.246l-403.054,917.654c-27.45,62.05 -58.684,118.925 -93.3,168.821c-34.634,50.137 -76.667,88.141 -124.775,113.091c-42.95,22.255 -94.2,33.488 -152.413,33.488c-6.979,0 -13.942,-0.225 -20.904,-0.45c-66.771,-2.917 -147.5,-24.95 -239.875,-65.642l-668.579,-293.596c-1.354,-0.658 -2.463,-1.787 -2.934,-3.141c-0.675,-1.354 -0.433,-2.934 0,-4.271l790.888,-1800.7c1.333,-2.708 4.496,-4.046 7.412,-2.708l668.575,293.596c45.175,19.791 85.209,40.92 119.825,62.95" style="fill:#030405;fill-rule:nonzero;"/><path d="M24645.8,6932.38c-36.195,53.504 -80.695,94.65 -132.17,122.292c-46.996,24.962 -103.421,37.55 -167.934,37.55c-6.529,0 -12.812,0 -19.566,-0.225c-72.396,-2.934 -158.942,-26.075 -257.188,-69.238l-697.342,-306.196c-1.354,-0.679 -2.466,-1.787 -2.933,-3.141c-0.437,-1.338 -0.437,-2.917 0,-4.271l821.229,-1869.93c1.338,-2.933 4.725,-4.045 7.417,-2.933l697.583,306.425c98.004,42.933 172.867,91.492 222.779,143.646c49.671,52.604 82.05,108.35 96.217,166.129c13.921,57.775 13.713,119.6 -0.679,183.888c-14.392,64.079 -36.421,130.383 -65.867,197.379l-403.075,917.671c-29.233,66.754 -62.5,127.675 -98.471,180.958m491.2,-1103.12c29.234,-66.304 51.021,-131.963 65.209,-195.125c14.146,-62.725 14.375,-122.967 0.658,-178.938c-13.471,-55.991 -44.95,-109.933 -93.525,-160.975c-48.558,-51.249 -122.292,-98.904 -219.183,-141.404l-692.171,-303.925l-816.717,1859.58l692.167,303.941c96.896,42.484 182.104,65.417 253.146,68.334c70.587,2.708 131.958,-9.446 181.629,-36.179c49.912,-26.53 93.092,-66.546 128.387,-118.475c35.521,-52.83 68.317,-113.071 97.325,-179.184l403.075,-917.654Z" style="fill:#030405;fill-rule:nonzero;"/><path d="M22817.9,4295.42c0.904,-2.917 -0.659,-6.075 -3.596,-7.188l-1008.92,-326.875c-1.579,-0.45 -2.917,-0.45 -4.271,0.225c-1.354,0.679 -2.483,1.804 -2.916,3.367l-629.463,1942.78c-1.129,2.933 0.675,6.075 3.592,6.979l1008.93,327.084c0.45,0.225 1.129,0.225 1.579,0.225c2.467,0 4.704,-1.58 5.383,-3.817l11.7,-35.975c0.454,-1.579 0.454,-2.917 -0.225,-4.271c-0.658,-1.354 -2.029,-2.462 -3.366,-2.933l-973.646,-315.609l298.558,-921.041l731.058,236.946c1.354,0.45 2.934,0.45 4.271,-0.225c1.354,-0.663 2.483,-2.017 2.933,-3.371l11.684,-35.971c0.904,-2.917 -0.675,-6.058 -3.592,-6.963l-731.304,-236.941l289.325,-892.484l973.646,315.625c1.337,0.45 2.916,0.225 4.271,-0.454c1.337,-0.675 2.237,-1.804 2.691,-3.141l11.684,-35.971Zm328.454,-213.784c9.879,24.496 7.621,59.338 -6.754,103.4l-136.459,420.834c-14.166,44.062 -32.829,73.525 -55.066,87.691c-22.034,13.925 -51.496,15.055 -87.45,3.367l-826.405,-267.967c-2.916,-0.904 -6.062,0.659 -7.187,3.592l-89.688,277.188c-0.454,1.337 -0.229,2.916 0.45,4.27c0.675,1.338 1.788,2.242 3.142,2.692l583.821,189.288c35.971,11.687 59.337,29.895 69.025,53.958c9.654,24.5 7.417,59.342 -6.75,103.404l-124.758,384.879c-14.392,44.046 -32.83,73.734 -55.313,87.675c-21.804,13.921 -51.25,15.05 -87.45,3.367l-583.817,-189.288c-1.354,-0.454 -2.933,-0.225 -4.27,0.45c-1.355,0.68 -2.259,1.805 -2.692,3.142l-100.279,309.567c-1.109,2.916 0.679,6.058 3.596,6.962l826.162,267.967c36.196,11.479 59.358,29.687 69.029,53.958c9.875,24.5 7.413,59.359 -6.754,103.404l-136.458,420.834c-14.167,44.062 -32.829,73.525 -55.071,87.691c-22.05,13.925 -51.492,15.05 -87.692,3.367l-1389.08,-450.296c-36.179,-11.683 -59.342,-29.896 -68.992,-53.937c-9.67,-24.517 -7.433,-59.359 6.734,-103.421l755.575,-2331.46c14.391,-44.063 32.829,-73.509 55.312,-87.45c11.909,-7.638 26.059,-11.475 42.259,-11.475c13.712,0 28.766,2.708 45.187,8.108l1389.29,450.279c35.971,11.683 59.112,29.667 68.8,53.958" style="fill:#fff;fill-rule:nonzero;"/><path d="M25022.2,6964.29c-105.659,240.312 -244.15,394.983 -411.859,459.725c-63.383,24.512 -132.412,36.645 -207.029,36.645c-122.083,0 -258.3,-32.812 -407.812,-98.47l-970.921,-426.459c-38.004,-16.633 -61.388,-39.55 -69.463,-67.883c-8.108,-27.879 -2.258,-64.738 17.517,-109.704l985.558,-2243.78c19.563,-44.966 42.95,-74.408 68.784,-87.241c26.529,-13.246 59.133,-11.459 97.133,5.175l970.921,426.458c240.312,105.658 395.662,243.925 461.529,410.954c65.867,167.259 45.642,373.854 -60.017,614.167l-474.341,1080.42Zm-2039.22,-201.65c-18.667,42.5 -24.5,76.875 -17.083,102.066c6.958,24.95 28.312,45.4 63.158,60.696l970.937,426.458c237.638,104.53 441.738,125.209 606.3,61.596c164.792,-63.4 301.25,-216.266 405.559,-453.662l474.566,-1080.42c104.305,-237.396 124.305,-441.058 59.584,-605.4c-64.534,-164.337 -217.85,-300.571 -455.454,-404.879l-971.18,-426.458c-34.616,-15.275 -64.062,-17.084 -87.22,-5.625c-23.613,11.929 -45.192,39.341 -63.838,81.841l-985.329,2243.78Z" style="fill:#030405;fill-rule:nonzero;"/><path d="M22271.2,5155.75l-11.687,35.971c-0.45,1.337 -1.579,2.708 -2.933,3.371c-1.338,0.675 -2.917,0.675 -4.271,0.225l-731.059,-236.946l-298.558,921.042l973.646,315.608c1.354,0.467 2.708,1.579 3.367,2.933c0.679,1.338 0.679,2.692 0.245,4.271l-11.704,35.971c-0.675,2.242 -2.916,3.821 -5.4,3.821c-0.45,0 -1.108,0 -1.579,-0.225l-1008.92,-327.1c-2.916,-0.888 -4.708,-4.046 -3.596,-6.963l629.463,-1942.78c0.433,-1.579 1.579,-2.692 2.917,-3.367c1.354,-0.679 2.691,-0.679 4.27,-0.225l1008.93,326.875c2.934,1.109 4.496,4.255 3.592,7.188l-11.683,35.971c-0.45,1.337 -1.354,2.466 -2.692,3.141c-1.354,0.68 -2.933,0.905 -4.271,0.454l-973.646,-315.624l-289.32,892.479l731.3,236.946c2.916,0.887 4.495,4.045 3.595,6.962m-454.566,-1145.16c0.9,-2.917 4.062,-4.496 6.979,-3.592l973.629,315.625l8.313,-25.417l-998.367,-323.491l-626.075,1931.98l998.142,323.733l8.316,-25.416l-973.629,-315.625c-2.917,-0.9 -4.721,-4.046 -3.596,-6.963l301.913,-931.821c0.45,-1.354 1.337,-2.691 2.691,-3.366c1.355,-0.68 2.917,-0.68 4.288,-0.23l731.283,236.946l8.075,-25.4l-731.062,-236.942c-1.579,-0.454 -2.688,-1.354 -3.367,-2.708c-0.658,-1.337 -0.658,-2.917 -0.225,-4.271l292.692,-903.041Z" style="fill:#030405;fill-rule:nonzero;"/><path d="M22948.1,4693.54c22.238,-14.167 40.905,-43.609 55.071,-87.671l136.459,-420.85c14.375,-44.046 16.629,-78.892 6.75,-103.404c-9.688,-24.288 -32.83,-42.259 -68.8,-53.942l-1389.29,-450.296c-16.425,-5.4 -31.475,-8.087 -45.192,-8.087c-16.2,0 -30.345,3.816 -42.275,11.458c-22.466,13.938 -40.904,43.383 -55.295,87.446l-755.571,2331.46c-14.167,44.079 -16.409,78.925 -6.738,103.421c9.654,24.063 32.813,42.275 68.992,53.958l1389.08,450.28c36.196,11.7 65.642,10.57 87.688,-3.371c22.241,-14.167 40.904,-43.609 55.071,-87.671l136.458,-420.833c14.167,-44.063 16.633,-78.909 6.754,-103.421c-9.671,-24.271 -32.829,-42.484 -69.029,-53.942l-826.163,-267.971c-2.916,-0.9 -4.704,-4.041 -3.591,-6.979l100.275,-309.546c0.433,-1.354 1.337,-2.483 2.691,-3.162c1.338,-0.675 2.917,-0.884 4.271,-0.434l583.821,189.271c36.196,11.704 65.642,10.575 87.446,-3.366c22.483,-13.942 40.904,-43.613 55.312,-87.675l124.759,-384.859c14.166,-44.062 16.404,-78.908 6.754,-103.421c-9.688,-24.062 -33.075,-42.258 -69.029,-53.958l-583.821,-189.287c-1.354,-0.438 -2.463,-1.338 -3.142,-2.692c-0.675,-1.338 -0.9,-2.917 -0.45,-4.271l89.688,-277.187c1.129,-2.917 4.271,-4.48 7.187,-3.596l826.404,267.971c35.959,11.7 65.4,10.57 87.45,-3.371m-661.387,1932.88c-14.829,0 -31.25,-2.692 -48.771,-8.542l-1389.08,-450.295c-39.567,-12.588 -65.208,-33.038 -75.988,-60.467c-10.8,-26.979 -8.766,-64.288 6.509,-111.058l755.591,-2331.23c15.05,-46.546 35.296,-78.229 59.792,-93.75c24.946,-15.729 57.533,-17.308 96.892,-4.496l1389.29,450.292c39.359,12.813 64.984,33.042 75.992,60.471c10.779,26.979 8.542,64.529 -6.529,111.058l-136.442,421.059c-15.067,46.529 -35.296,78.004 -59.792,93.525c-24.962,15.729 -57.795,17.308 -97.116,4.495l-821.009,-265.954l-86.316,266.163l578.646,187.5c39.337,12.812 64.754,33.266 75.762,60.696c10.8,26.979 8.767,64.287 -6.512,110.833l-124.771,385.087c-15.071,46.525 -35.088,78.246 -59.792,93.75c-24.967,15.73 -57.571,17.084 -96.896,4.496l-578.646,-187.483l-96.683,298.525l820.992,266.179c39.358,12.813 64.962,33.038 75.987,60.471c10.784,27.204 8.542,64.529 -6.525,111.058l-136.441,420.834c-15.071,46.754 -35.296,78.229 -60.038,93.75c-13.696,8.766 -29.896,13.037 -48.104,13.037" style="fill:#030405;fill-rule:nonzero;"/><path d="M20757.4,3324.46c12.138,23.384 13.042,58.229 3.163,103.421l-98.038,446.909c-9.879,45.399 -25.608,76.425 -46.304,92.62c-20.675,15.954 -49.913,20 -87.013,11.909l-451.841,-99.355c-1.354,-0.245 -2.934,0 -4.271,0.884c-1.129,0.679 -2.029,2.033 -2.258,3.596l-398.35,1813.75c-9.896,45.17 -25.4,76.195 -46.3,92.62c-20.471,15.955 -49.705,19.775 -86.788,11.684l-497.954,-109.254c-37.083,-8.334 -62.029,-24.063 -73.958,-47.204c-12.134,-23.388 -13.246,-58.23 -3.367,-103.421l398.142,-1813.73c0.679,-3.141 -1.146,-6.075 -4.271,-6.754l-451.875,-99.129c-37.1,-8.092 -61.804,-24.046 -73.734,-47.204c-12.133,-23.388 -13.262,-58.004 -3.366,-103.421l98.229,-446.912c9.896,-45.188 25.417,-76.438 46.321,-92.621c20.466,-15.954 49.666,-20 86.771,-11.909l1623.09,356.321c37.1,8.088 61.842,24.042 73.975,47.204m-1411.77,2098.56l30.784,6.754l1.129,0c2.708,0 4.946,-1.808 5.4,-4.271l428.696,-1952.45l624.741,137.138c3.142,0.675 6.059,-1.13 6.525,-4.271l8.3,-36.875c0.242,-1.338 0,-2.917 -0.887,-4.271c-0.692,-1.129 -2.029,-2.017 -3.384,-2.467l-1291.28,-283.487c-1.337,-0.229 -2.917,0 -4.271,0.9c-1.112,0.679 -2.016,2.033 -2.241,3.595l-8.109,36.876c-0.658,2.916 1.146,6.074 4.288,6.754l624.5,137.116l-428.459,1952.22c-0.241,1.579 0,2.917 0.663,4.271c0.883,1.113 2.254,2.033 3.608,2.467" style="fill:#fff;fill-rule:nonzero;"/><path d="M19345.6,5423.04c-1.354,-0.45 -2.708,-1.355 -3.608,-2.484c-0.662,-1.337 -0.904,-2.691 -0.662,-4.27l428.475,-1952.2l-624.517,-137.137c-3.142,-0.675 -4.929,-3.817 -4.271,-6.75l8.108,-36.858c0.209,-1.58 1.113,-2.934 2.242,-3.596c1.354,-0.9 2.917,-1.129 4.271,-0.9l1291.28,283.471c1.354,0.45 2.692,1.354 3.367,2.483c0.904,1.337 1.129,2.917 0.904,4.271l-8.317,36.858c-0.45,3.158 -3.366,4.946 -6.529,4.288l-624.721,-137.138l-428.716,1952.43c-0.45,2.48 -2.688,4.271 -5.396,4.271l-1.129,0l-30.784,-6.737Zm432.292,-1968.85c2.917,0.675 4.725,3.591 4.271,6.737l-428.696,1952.22l19.792,4.496l428.696,-1952.43c0.225,-1.355 1.129,-2.709 2.241,-3.388c1.354,-0.9 2.933,-1.129 4.271,-0.9l624.737,137.133l5.625,-25.85l-1280.05,-281.008l-5.626,25.85l624.738,137.138Z" style="fill:#030405;fill-rule:nonzero;"/><path d="M20529.2,3979.33c37.1,8.088 66.321,4.042 87.012,-11.912c20.679,-16.196 36.409,-47.204 46.304,-92.621l98.021,-446.908c9.896,-45.192 8.992,-80.038 -3.141,-103.421c-12.155,-23.159 -36.876,-39.117 -73.98,-47.204l-1623.09,-356.321c-37.1,-8.092 -66.321,-4.046 -86.771,11.908c-20.921,16.2 -36.425,47.45 -46.321,92.625l-98.246,446.909c-9.879,45.416 -8.766,80.033 3.384,103.42c11.912,23.159 36.633,39.113 73.733,47.204l451.858,99.15c3.142,0.675 4.95,3.592 4.271,6.734l-398.125,1813.73c-9.896,45.192 -8.767,80.038 3.367,103.421c11.912,23.142 36.875,38.887 73.958,47.204l497.938,109.254c37.1,8.092 66.333,4.271 86.787,-11.683c20.9,-16.425 36.421,-47.45 46.3,-92.621l398.371,-1813.73c0.208,-1.579 1.108,-2.934 2.254,-3.596c1.338,-0.9 2.917,-1.125 4.271,-0.9l451.842,99.358Zm-1562.62,-1055.45c23.383,-18.004 55.521,-22.725 96.212,-13.958l1623.09,356.321c40.263,8.991 67.675,26.754 81.388,53.054c13.283,25.871 14.829,63.179 4.27,111.058l-98.02,446.929c-10.555,47.863 -27.638,81.146 -50.571,99.134c-23.367,17.983 -55.763,22.708 -95.992,13.937l-446.475,-98.021l-396.996,1808.11c-10.554,47.9 -27.429,81.391 -50.346,99.15c-15.766,12.137 -35.52,18.212 -58.908,18.212c-11.7,0 -24.062,-1.354 -37.308,-4.287l-497.967,-109.255c-40.454,-8.991 -67.883,-26.754 -81.354,-53.037c-13.508,-25.642 -14.863,-63.179 -4.292,-111.058l396.792,-1808.12l-446.25,-98.005c-40.696,-8.995 -68.108,-26.754 -81.6,-53.058c-13.263,-25.625 -14.842,-62.95 -4.271,-111.058l98.246,-446.909c10.333,-47.883 27.417,-81.162 50.35,-99.133" style="fill:#030405;fill-rule:nonzero;"/><path d="M17878,3054.92c0.225,-1.563 -0.23,-3.142 -1.113,-4.271c-0.904,-1.125 -2.258,-2.013 -3.612,-2.013l-993.421,-121.633c-1.579,-0.225 -3.142,0.229 -4.271,1.129c-1.125,0.904 -1.804,2.258 -2.013,3.821l-4.72,37.55c-0.246,3.146 1.804,5.854 4.929,6.287l478.629,58.455l-237.396,1940.97l-478.629,-58.679c-1.563,-0.225 -2.917,0.225 -4.271,1.13c-1.112,1.129 -1.787,2.483 -2.012,3.816l-4.496,37.554c-0.454,3.142 1.804,5.834 4.721,6.284l993.404,121.616l0.692,0c1.354,0 2.691,-0.433 3.595,-1.337c1.13,-0.904 2.03,-2.258 2.03,-3.596l4.704,-37.55c0.229,-3.142 -2.013,-5.833 -4.946,-6.283l-472.533,-57.779l237.62,-1940.99l472.309,57.796c3.158,0.433 5.85,-1.804 6.3,-4.963l4.5,-37.312Zm281.891,-272.463c14.184,22.254 18.663,56.65 13.055,102.742l-55.538,454.096c-5.608,46.096 -18.212,78.458 -37.533,96.666c-18.892,17.763 -47.659,24.517 -85.192,19.792l-303.037,-36.875c-3.163,-0.675 -5.855,1.808 -6.321,4.725l-154.429,1261.39c-0.226,3.141 1.791,5.85 4.95,6.304l303.037,37.083c37.533,4.496 63.838,17.983 78.004,39.792c14.167,22.254 18.646,56.875 13.038,102.741l-54.617,446.684c-5.625,46.075 -18.213,78.679 -37.554,96.666c-18.871,17.763 -47.429,24.513 -85.209,20.017l-1330.85,-162.983c-37.533,-4.5 -63.854,-17.988 -78.004,-39.792c-14.15,-22.258 -18.646,-56.667 -13.037,-102.746l54.637,-446.683c5.625,-46.092 18.192,-78.454 37.55,-96.667c15.055,-14.166 36.18,-21.354 63.388,-21.354c6.958,0 14.146,0.45 21.804,1.563l309.321,37.779c1.354,0.225 2.917,-0.225 4.062,-1.129c1.338,-0.905 2.017,-2.242 2.242,-3.821l154.2,-1261.39c0.246,-1.354 -0.208,-2.916 -1.108,-4.046c-0.904,-1.129 -2.242,-2.029 -3.596,-2.029l-309.342,-37.987c-37.758,-4.496 -64.062,-17.988 -78,-39.792c-14.396,-22.258 -18.666,-56.65 -13.041,-102.742l55.541,-454.325c5.604,-46.091 18.192,-78.47 37.534,-96.441c18.887,-17.984 47.654,-24.513 85.208,-20.017l1330.83,162.763c37.55,4.72 63.854,17.983 78.004,40.016" style="fill:#fff;fill-rule:nonzero;"/><path d="M16880.8,2965.21l478.612,58.684c1.579,0 2.917,0.9 3.821,2.012c0.9,1.129 1.354,2.709 1.146,4.046l-238.75,1952.22c-0.225,1.354 -1.129,2.708 -2.258,3.596c-1.13,0.9 -2.709,1.354 -4.046,1.129l-478.609,-58.458l-3.37,26.304l982.395,120.279l3.142,-26.529l-472.308,-57.779c-1.58,0 -2.934,-0.9 -3.838,-2.03c-0.883,-1.112 -1.333,-2.691 -1.108,-4.045l238.75,-1952.2c0.225,-1.354 0.9,-2.708 2.012,-3.595c1.355,-0.9 2.934,-1.355 4.271,-1.355l472.325,58.005l3.371,-26.53l-982.396,-120.05l-3.162,26.3Zm997.241,89.709l-4.479,37.308c-0.471,3.158 -3.158,5.4 -6.321,4.946l-472.308,-57.775l-237.604,1940.97l472.533,57.779c2.917,0.45 5.159,3.158 4.95,6.3l-4.721,37.533c0,1.354 -0.904,2.708 -2.033,3.596c-0.904,0.904 -2.237,1.354 -3.592,1.354l-0.679,0l-993.421,-121.617c-2.916,-0.449 -5.17,-3.158 -4.704,-6.3l4.479,-37.533c0.225,-1.354 0.905,-2.708 2.034,-3.837c1.354,-0.888 2.687,-1.338 4.271,-1.113l478.608,58.663l237.396,-1940.95l-478.609,-58.455c-3.145,-0.45 -5.175,-3.158 -4.95,-6.304l4.721,-37.55c0.229,-1.562 0.904,-2.9 2.017,-3.821c1.146,-0.883 2.692,-1.337 4.271,-1.108l993.421,121.613c1.354,0 2.708,0.904 3.608,2.012c0.904,1.129 1.337,2.708 1.112,4.292" style="fill:#030405;fill-rule:nonzero;"/><path d="M18160,2782.46c-14.15,-22.033 -40.45,-35.296 -78.004,-40.021l-1330.83,-162.758c-37.567,-4.496 -66.338,2.029 -85.225,20.017c-19.321,17.971 -31.908,50.346 -37.533,96.441l-55.521,454.321c-5.625,46.096 -1.354,80.488 13.037,102.746c13.942,21.804 40.225,35.296 78.004,39.792l309.338,37.983c1.354,0 2.692,0.904 3.596,2.034c0.883,1.112 1.354,2.691 1.112,4.045l-154.221,1261.39c-0.208,1.562 -0.904,2.917 -2.237,3.821c-1.129,0.9 -2.692,1.337 -4.046,1.129l-309.325,-37.779c-7.654,-1.113 -14.842,-1.563 -21.804,-1.563c-27.221,0 -48.35,7.188 -63.404,21.354c-19.338,18.196 -31.925,50.571 -37.55,96.65l-54.621,446.7c-5.625,46.075 -1.125,80.488 13.042,102.725c14.145,21.825 40.466,35.313 78,39.792l1330.85,163.004c37.775,4.479 66.316,-2.258 85.187,-20.017c19.358,-17.987 31.929,-50.591 37.554,-96.666l54.634,-446.7c5.608,-45.854 1.112,-80.471 -13.038,-102.729c-14.166,-21.805 -40.466,-35.292 -78.004,-39.792l-303.037,-37.083c-3.159,-0.45 -5.171,-3.159 -4.946,-6.3l154.425,-1261.39c0.454,-2.917 3.162,-5.4 6.304,-4.725l303.037,36.875c37.55,4.725 66.321,-2.029 85.209,-19.792c19.321,-18.212 31.908,-50.57 37.533,-96.666l55.538,-454.113c5.608,-46.079 1.112,-80.471 -13.055,-102.725m-1407.5,-214.012l1330.85,162.987c41.13,4.946 69.913,20 86.096,44.946c15.746,24.517 20.675,61.6 14.617,110.158l-55.521,454.113c-5.85,48.787 -19.792,83.629 -40.921,103.404c-21.354,20.242 -53.279,28.108 -94.2,22.933l-297.637,-36.404l-152.867,1250.14l297.412,36.425c41.146,5.154 70.142,20.225 86.113,44.946c15.729,24.512 20.675,61.595 14.825,110.175l-54.617,446.683c-6.075,48.783 -19.791,83.612 -40.921,103.404c-17.308,16.404 -41.145,24.513 -71.041,24.513c-7.413,0 -15.279,-0.45 -23.384,-1.58l-1330.83,-162.762c-41.146,-4.946 -70.142,-20.242 -86.112,-44.963c-15.73,-24.5 -20.696,-61.6 -14.617,-110.158l54.617,-446.683c5.85,-48.784 19.566,-83.629 40.937,-103.421c21.338,-20.225 53.054,-28.092 94.183,-22.917l303.717,37.084l153.088,-1250.14l-303.713,-37.1c-41.129,-5.175 -70.142,-20.229 -86.096,-44.966c-15.729,-24.496 -20.675,-61.58 -14.825,-110.138l55.521,-454.342c6.058,-48.558 19.775,-83.404 40.904,-103.404c21.579,-20.241 53.504,-27.879 94.425,-22.933" style="fill:#030405;fill-rule:nonzero;"/><path d="M15707.8,2501.46c16.404,20.675 24.271,54.617 23.142,100.938l-56.65,2450.15c-1.113,46.321 -10.329,79.813 -27.638,99.813c-17.1,19.562 -44.758,29.008 -82.971,28.104l-472.083,-10.796c-37.758,-0.888 -65.417,-11.684 -81.387,-32.138c-16.409,-20.45 -24.271,-54.633 -23.159,-100.937l10.796,-465.121c0,-1.129 -0.45,-2.237 -0.883,-3.142l-520,-795.158c-1.113,-1.562 -2.9,-2.462 -4.704,-2.462c-0.455,0 -1.113,0 -1.584,0.225c-2.237,0.675 -4.041,2.691 -4.041,5.175l-28.771,1247.89c-1.125,46.305 -10.571,79.813 -27.88,99.813c-16.408,18.662 -42.258,28.104 -78.004,28.104l-4.95,0l-471.875,-11.021c-37.983,-0.679 -65.395,-11.458 -81.595,-31.929c-16.405,-20.675 -24.063,-54.617 -23.159,-100.937l56.667,-2450.16c1.108,-46.304 10.554,-79.812 27.862,-99.812c17.084,-19.546 45.4,-28.992 82.955,-28.104l327.1,7.654c38.87,0.904 72.149,8.975 99.129,24.271c27.208,15.296 53.958,42.05 79.812,79.583l590.779,853.596c1.58,2.012 3.838,2.917 6.305,2.012c2.479,-0.679 4.041,-2.691 4.041,-5.158l18.667,-805.258c1.108,-46.321 10.346,-80.034 27.654,-99.825c17.308,-19.55 45.4,-29.221 82.95,-28.317l472.104,11.004c37.742,0.904 65.171,11.688 81.371,31.929m-1543.98,312.484c0.225,0 1.354,0.225 4.496,2.691c2.483,2.255 4.946,4.496 6.754,6.75l1151,1628.94l-8.766,387.571c-0.225,3.141 2.241,5.833 5.383,5.833l31.475,0.675c1.579,0 2.933,-0.45 4.046,-1.562c1.129,-0.9 1.579,-2.479 1.579,-3.834l47.446,-2041.69c0,-3.142 -2.479,-5.85 -5.642,-5.85l-31.458,-0.659c-1.354,0.209 -2.934,0.45 -4.063,1.58c-1.108,0.887 -1.562,2.466 -1.787,3.804l-36.425,1578.59l-1111.89,-1578.14c0,0 0,-0.225 -0.208,-0.225c-10.571,-13.267 -18.68,-22.467 -25.192,-27.867c-7.204,-6.075 -15.729,-9.217 -25.396,-9.442c-9.671,0 -19.55,3.817 -29.221,12.134c-9.896,8.316 -14.862,21.146 -15.295,37.779l-46.317,2000.09c0,3.159 2.479,5.85 5.417,5.85l31.458,0.675c1.579,0 2.917,-0.45 4.062,-1.579c1.109,-0.883 1.788,-2.237 1.788,-3.821l46.075,-1992.67c0,-1.58 0.471,-3.388 0.679,-5.625" style="fill:#fff;fill-rule:nonzero;"/><path d="M15354.1,4846.42l-31.458,-0.679c-3.159,0 -5.625,-2.692 -5.4,-5.834l8.766,-387.567l-1151,-1628.94c-1.808,-2.259 -4.271,-4.517 -6.754,-6.754c-3.142,-2.484 -4.271,-2.692 -4.479,-2.692c-0.225,2.242 -0.696,4.046 -0.696,5.608l-46.075,1992.69c0,1.579 -0.679,2.917 -1.787,3.817c-1.146,1.112 -2.484,1.562 -4.063,1.562l-31.458,-0.658c-2.934,0 -5.417,-2.709 -5.417,-5.85l46.317,-2000.1c0.454,-16.634 5.4,-29.446 15.296,-37.763c9.67,-8.312 19.549,-12.133 29.22,-12.133c9.671,0.208 18.192,3.366 25.417,9.446c6.508,5.379 14.6,14.6 25.171,27.862c0.208,0 0.208,0.225 0.208,0.225l1111.9,1578.14l36.421,-1578.59c0.225,-1.354 0.679,-2.917 1.808,-3.821c1.109,-1.129 2.688,-1.354 4.042,-1.579l31.458,0.679c3.163,0 5.646,2.709 5.646,5.85l-47.45,2041.68c0,1.354 -0.45,2.916 -1.579,3.82c-1.113,1.125 -2.467,1.58 -4.046,1.58m21.354,-2042.36l-36.875,1590.05c0,2.463 -1.546,4.496 -3.8,5.171c-2.483,0.679 -4.95,0 -6.304,-2.029l-1121.55,-1592.08c-9.896,-12.363 -17.983,-21.113 -23.837,-26.08c-4.946,-4.27 -11.25,-6.508 -18.209,-6.733l-0.437,0c-6.979,0 -13.958,3.142 -21.371,9.442c-7.187,6.287 -11.025,15.958 -11.233,29.671l-46.092,1994.48l20.225,0.454l45.867,-1987.07c0,-3.141 0.904,-6.512 2.258,-9.654c2.013,-4.512 5.383,-6.754 10.104,-6.979c3.367,0 6.963,1.804 11.234,5.175c3.158,2.917 6.075,5.625 8.333,8.542l1152.59,1630.97c0.675,1.13 1.109,2.242 1.109,3.367l-8.992,383.979l20.225,0.45l46.996,-2030.47l-20.242,-0.658Z" style="fill:#030405;fill-rule:nonzero;"/><path d="M14327,5151.92l4.946,0c35.746,0 61.596,-9.425 78.004,-28.088c17.308,-20.017 26.754,-53.508 27.883,-99.829l28.767,-1247.9c0,-2.467 1.821,-4.479 4.046,-5.158c0.467,-0.242 1.125,-0.242 1.579,-0.242c1.804,0 3.592,0.921 4.721,2.483l519.983,795.138c0.434,0.904 0.904,2.012 0.904,3.142l-10.8,465.12c-1.129,46.321 6.738,80.488 23.159,100.938c15.954,20.471 43.612,31.25 81.371,32.154l472.083,10.8c38.229,0.883 65.871,-8.542 82.971,-28.108c17.308,-20 26.529,-53.509 27.654,-99.809l56.633,-2450.18c1.146,-46.304 -6.717,-80.241 -23.142,-100.937c-16.179,-20.225 -43.612,-31.025 -81.37,-31.908l-472.1,-11.025c-37.555,-0.888 -65.646,8.766 -82.955,28.333c-17.308,19.775 -26.525,53.504 -27.654,99.808l-18.662,805.259c0,2.466 -1.563,4.5 -4.029,5.175c-2.484,0.904 -4.742,0 -6.321,-2.03l-590.779,-853.595c-25.85,-37.534 -52.604,-64.288 -79.809,-79.567c-26.962,-15.296 -60.245,-23.383 -99.133,-24.288l-327.083,-7.637c-37.554,-0.904 -65.867,8.542 -82.971,28.087c-17.308,20.021 -26.75,53.509 -27.863,99.813l-56.666,2450.17c-0.904,46.304 6.754,80.246 23.158,100.937c16.2,20.454 43.613,31.25 81.6,31.929l471.875,11.005Zm-81.825,-2725.54c40.696,0.904 75.746,9.429 104.533,25.625c28.542,16.183 56.646,44.063 83.4,83.179l581.13,839.2l18.212,-788.175c1.113,-48.996 11.458,-84.966 30.571,-106.791c19.342,-22.238 50.592,-32.813 91.496,-32.134l472.083,11.009c41.371,0.9 71.717,13.037 89.929,36.195c18.213,22.934 26.754,59.359 25.625,108.142l-56.65,2450.16c-1.108,49.009 -11.458,84.984 -30.571,107.013c-18.662,21.112 -47.658,31.908 -86.545,31.908l-4.95,0l-472.1,-10.796c-41.355,-1.112 -71.7,-13.245 -89.913,-36.408c-18.212,-22.708 -26.754,-59.129 -25.642,-108.125l10.8,-463.333l-509.187,-778.504l-28.333,1229.69c-1.109,49.008 -11.459,84.979 -30.555,106.788c-19.341,22.254 -50.816,32.829 -91.737,32.133l-471.854,-11.004c-41.6,-0.904 -71.946,-13.042 -90.159,-36.2c-17.987,-22.692 -26.754,-59.113 -25.625,-108.125l56.65,-2450.15c1.338,-49.013 11.475,-84.984 30.571,-106.792c19.325,-22.254 50.592,-33.038 91.721,-32.15l327.1,7.654Z" style="fill:#030405;fill-rule:nonzero;"/><path d="M12056.5,4543.12c113.525,-8.992 183.213,-31.908 213.109,-70.138c29.462,-37.308 42.258,-82.5 38.229,-133.975l-137.363,-1719.1c-3.591,-46.091 2.242,-80.483 17.313,-102.066c15.067,-21.125 41.804,-33.488 79.583,-36.646l476.804,-37.987c37.78,-3.142 66.321,4.945 84.53,23.383c18.437,19.117 29.67,51.929 33.283,98.229l149.029,1866.13c9.217,114.429 3.608,220.992 -17.067,316.529c-20.246,95.088 -64.079,179.392 -129.95,250.642c-65.866,71.267 -160.746,131.529 -281.908,178.733c-121.388,47.205 -280.783,79.134 -473.888,94.409c-192.883,15.521 -355.416,9.446 -482.883,-17.967c-127.012,-27.433 -230.208,-71.721 -306.633,-131.754c-76.213,-59.792 -132.863,-136.217 -168.159,-226.825c-35.295,-91.042 -57.779,-195.346 -66.979,-309.771l-149.287,-1866.13c-3.596,-46.304 2.254,-80.696 17.533,-102.275c15.071,-21.129 41.825,-33.508 79.583,-36.425l492.555,-39.338c5.17,-0.454 10.12,-0.679 15.05,-0.679c30.366,0 53.508,8.092 69.254,24.063c18.437,18.871 29.671,51.929 33.487,98.004l137.138,1719.1c4.271,51.475 24.062,93.975 59.133,126.337c35.5,32.829 106.996,44.513 218.504,35.521m27.867,388.471c245.05,-19.563 410.504,-81.163 491.442,-183.229c80.916,-102.046 115.762,-230.417 103.625,-382.15l-125.659,-1572.08c-0.225,-2.916 -2.933,-5.175 -6.075,-4.933l-31.25,2.467c-1.579,0 -2.916,0.679 -3.821,1.787c-1.129,1.129 -1.579,2.709 -1.354,4.271l125.45,1572.08c11.234,138.475 -21.371,255.142 -96.891,347.1c-75.313,91.721 -229.984,147.467 -459.496,165.905c-229.529,18.212 -390.279,-12.363 -478.404,-91.042c-87.896,-78.679 -138.021,-188.838 -149.271,-327.55l-125.434,-1572.07c-0.45,-2.916 -3.158,-5.175 -6.075,-5.175l-31.458,2.709c-1.579,0 -2.933,0.658 -3.837,1.787c-0.884,1.129 -1.338,2.708 -1.338,4.271l125.663,1572.07c12.133,151.529 66.316,272.916 161.404,360.816c77.779,71.946 207.725,108.367 386.891,108.367c39.567,0 81.617,-1.804 125.888,-5.4" style="fill:#fff;fill-rule:nonzero;"/><path d="M11594.5,4800.33c-90.154,-80.695 -141.633,-193.558 -153.092,-335.191l-125,-1566.44l-20.225,1.583l125.209,1566.67c11.912,148.592 64.966,267.517 157.812,353.4c92.621,85.871 262.138,119.6 504.254,100.038c241.892,-19.342 404.638,-79.584 483.559,-178.959c78.908,-99.583 113.075,-225.471 101.146,-374.291l-125.209,-1566.46l-20,1.809l124.984,1566.44c11.458,141.404 -22.03,261.004 -99.359,355.188c-77.341,94.204 -234.704,151.304 -467.379,169.966c-232.671,18.421 -396.333,-13.037 -486.7,-93.75m1084.91,-434.096c12.137,151.734 -22.709,280.105 -103.646,382.171c-80.921,102.063 -246.371,163.663 -491.421,183.209c-44.271,3.612 -86.321,5.4 -125.888,5.4c-179.166,0 -309.112,-36.421 -386.891,-108.35c-95.088,-87.9 -149.271,-209.304 -161.409,-360.817l-125.658,-1572.07c0,-1.579 0.433,-3.158 1.338,-4.271c0.904,-1.124 2.258,-1.804 3.82,-1.804l31.475,-2.708c2.917,0 5.625,2.258 6.075,5.175l125.434,1572.08c11.25,138.696 61.371,248.854 149.271,327.534c88.125,78.679 248.87,109.254 478.387,91.041c229.529,-18.437 384.2,-74.183 459.513,-165.904c75.52,-91.942 108.125,-208.608 96.891,-347.1l-125.45,-1572.07c-0.225,-1.562 0.225,-3.141 1.354,-4.27c0.905,-1.125 2.238,-1.805 3.821,-1.805l31.25,-2.466c3.142,-0.225 5.85,2.016 6.059,4.95l125.675,1572.07Z" style="fill:#030405;fill-rule:nonzero;"/><path d="M13022.2,4430.08c9.217,115.559 3.367,223.229 -17.313,319.688c-20.674,97.1 -65.416,183.212 -132.637,256.041c-67.204,72.621 -163.437,133.767 -285.954,181.425c-122.517,47.655 -283.021,79.792 -477.258,95.313c-69.463,5.625 -135.105,8.317 -196.7,8.317c-110.159,0 -207.05,-8.767 -289.325,-26.53c-128.817,-27.862 -233.575,-72.829 -311.355,-133.975c-77.791,-61.162 -135.57,-138.941 -171.541,-231.545c-35.729,-91.963 -58.667,-197.396 -67.884,-312.934l-149.046,-1866.13c-4.045,-48.992 2.467,-85.867 19.325,-109.479c17.084,-24.271 46.542,-37.988 87.896,-41.354l492.571,-39.342c41.129,-3.383 72.604,5.608 93.283,26.754c20.242,20.904 32.605,56.2 36.421,104.984l137.346,1719.1c4.063,48.563 22.484,88.563 55.538,118.909c32.604,30.137 103.404,41.146 209.966,32.604c108.575,-8.767 177.813,-30.8 205.259,-65.867c27.637,-35.07 39.55,-77.57 35.729,-126.112l-137.342,-1719.1c-3.837,-48.787 2.688,-85.663 19.321,-109.479c17.083,-24.063 46.771,-38.004 87.9,-41.146l476.821,-38.213c41.354,-3.37 72.833,5.851 93.508,26.755c20.225,20.9 32.604,56.421 36.425,105.208l149.046,1866.11Zm-851.792,-1810.14l137.363,1719.1c4.046,51.475 -8.767,96.666 -38.229,133.975c-29.896,38.229 -99.584,61.166 -213.109,70.141c-111.508,8.992 -182.983,-2.691 -218.504,-35.521c-35.071,-32.362 -54.862,-74.862 -59.133,-126.337l-137.138,-1719.1c-3.816,-46.079 -15.05,-79.133 -33.487,-98.004c-15.729,-15.975 -38.888,-24.063 -69.254,-24.063c-4.929,0.001 -9.879,0.225 -15.05,0.676l-492.554,39.341c-37.759,2.917 -64.513,15.296 -79.584,36.425c-15.279,21.579 -21.129,55.971 -17.533,102.292l149.287,1866.11c9.2,114.429 31.684,218.734 66.98,309.775c35.295,90.609 91.945,167.033 168.158,226.842c76.425,60.017 179.621,104.304 306.633,131.733c127.467,27.434 290,33.492 482.884,17.988c193.104,-15.296 352.5,-47.221 473.887,-94.425c121.163,-47.209 216.042,-107.45 281.908,-178.717c65.871,-71.267 109.705,-155.575 129.95,-250.658c20.675,-95.542 26.284,-202.105 17.084,-316.529l-149.046,-1866.13c-3.596,-46.3 -14.846,-79.112 -33.283,-98.229c-18.209,-18.437 -46.75,-26.529 -84.53,-23.367l-476.804,37.984c-37.779,3.146 -64.516,15.504 -79.583,36.633c-15.071,21.596 -20.904,55.992 -17.313,102.067" style="fill:#030405;fill-rule:nonzero;"/><path d="M9074.21,5271.29c0.675,-1.113 1.109,-2.692 0.675,-4.046l-67.9,-352.934c-0.433,-2.933 -3.591,-4.966 -6.508,-4.512l-30.8,6.075c-1.579,0.225 -2.917,1.129 -3.613,2.238c-0.883,1.354 -1.108,2.937 -0.883,4.27l67.883,352.955c0.45,2.708 2.934,4.495 5.396,4.495c0.454,0 0.904,0 1.129,-0.225l31.025,-5.833c1.355,-0.246 2.692,-1.129 3.596,-2.483m436.354,120.05c8.767,45.4 6.734,80.262 -6.079,103.404c-12.587,22.708 -37.775,38.004 -75.087,45.191l-624.288,120.05c-37.308,7.188 -66.316,2.467 -86.316,-13.937c-20.455,-16.858 -35.296,-48.333 -44.063,-93.979l-145.229,-753.767c-8.542,-45.417 -6.508,-80.258 6.079,-103.421c12.588,-22.708 37.758,-37.983 75.067,-45.171l624.291,-120.054c11.25,-2.254 21.805,-3.383 31.476,-3.383c22.483,0 40.92,5.85 55.087,17.308c20.45,16.875 35.067,48.35 43.833,93.75l145.229,754.009Z" style="fill:#fff;fill-rule:nonzero;"/><path d="M9070.58,5273.75l-31.025,5.833c-0.225,0.242 -0.679,0.242 -1.129,0.242c-2.467,0 -4.946,-1.804 -5.4,-4.512l-67.879,-352.934c-0.229,-1.354 0,-2.917 0.9,-4.271c0.679,-1.129 2.017,-2.033 3.596,-2.258l30.796,-6.058c2.916,-0.45 6.079,1.562 6.512,4.495l67.9,352.955c0.433,1.333 0,2.916 -0.679,4.025c-0.9,1.354 -2.237,2.258 -3.592,2.483m-73.508,-351.821l-19.792,3.817l65.642,341.929l20.017,-3.821l-65.867,-341.925Z" style="fill:#030405;fill-rule:nonzero;"/><path d="M8674.71,5552.08c8.771,45.625 23.613,77.1 44.063,93.975c20,16.409 49.012,21.113 86.321,13.925l624.287,-120.033c37.329,-7.208 62.5,-22.483 75.088,-45.192c12.812,-23.162 14.846,-58.004 6.075,-103.42l-145.225,-753.992c-8.767,-45.417 -23.384,-76.896 -43.838,-93.75c-14.167,-11.458 -32.604,-17.313 -55.066,-17.313c-9.688,0 -20.246,1.13 -31.475,3.371l-624.292,120.05c-37.325,7.188 -62.5,22.483 -75.083,45.192c-12.588,23.141 -14.621,58.004 -6.08,103.421l145.225,753.766Zm558.196,-1033.44c40.471,-7.863 72.846,-2.467 95.538,16.179c22.708,18.667 38.662,52.379 47.9,100.487l145.208,753.784c9.221,48.333 6.754,85.646 -7.188,111.062c-14.391,25.85 -42.05,42.934 -82.725,50.796l-624.287,120.054c-12.137,2.238 -23.387,3.592 -33.717,3.592c-25.175,0 -45.866,-6.754 -62.05,-20.017c-22.479,-18.212 -38.679,-52.154 -47.879,-100.258l-145.246,-753.996c-9.2,-48.108 -6.733,-85.433 7.209,-110.833c14.391,-25.85 42.271,-42.934 82.95,-50.796l624.287,-120.054Z" style="fill:#030405;fill-rule:nonzero;"/><path d="M7756.83,5538.58c3.163,-0.679 4.95,-3.82 4.046,-6.737l-9.446,-36.65c-0.433,-1.563 -1.333,-2.688 -2.462,-3.592c-1.354,-0.679 -2.934,-0.904 -4.271,-0.45l-508.958,131.733c-180.296,46.98 -310.455,45.642 -386.667,-3.366c-76.442,-49.013 -135.783,-153.317 -176.25,-309.792l-265.729,-1024.88c-41.129,-158.942 -39.55,-281.008 5.171,-362.846c44.516,-81.6 156.458,-146.129 332.937,-191.754l508.75,-131.963c2.917,-0.675 4.721,-3.82 4.042,-6.737l-9.442,-36.646c-0.454,-1.583 -1.354,-2.708 -2.708,-3.596c-1.113,-0.675 -2.692,-0.904 -4.271,-0.45l-508.733,131.734c-195.8,50.8 -318.542,122.745 -365.088,213.787c-46.529,91.042 -47.204,225.258 -2.012,399.025l265.712,1025.12c43.854,169.042 108.367,283.696 192.221,340.796c44.271,30.35 104.983,45.417 181.633,45.417c68.575,0 149.496,-12.134 242.792,-36.196l508.733,-131.963Zm321.704,121.859c11.684,44.72 11.909,79.583 0.675,103.629c-11.25,23.366 -35.52,40.241 -72.17,49.687l-743.192,192.655c-251.354,65.191 -456.146,53.037 -608.563,-35.971c-152.429,-88.805 -262.566,-261.234 -327.775,-512.555l-295.158,-1138.42c-65.192,-251.334 -52.604,-456.146 37.083,-609.234c89.705,-153.091 262.588,-263.683 513.7,-328.662l743.421,-192.883c14.167,-3.596 27.204,-5.401 39.113,-5.401c18.887,0 35.071,4.721 48.108,13.942c21.354,15.521 38.213,46.075 49.913,90.834l114.654,443.091c11.683,44.721 11.908,79.584 0.675,103.4c-11.025,23.613 -35.296,40.246 -72.171,49.913l-612.358,158.716c-64.08,16.634 -108.371,45.175 -131.755,84.742c-23.141,39.563 -26.737,91.058 -10.554,153.333l225.938,871.334c16.179,62.275 44.062,104.533 82.933,125.208c38.904,20.921 91.058,22.938 155.121,6.304l612.379,-158.716c36.65,-9.442 66.092,-6.734 87.221,8.541c21.579,15.521 38.212,46.096 49.912,90.834l112.85,435.679Z" style="fill:#fff;fill-rule:nonzero;"/><path d="M6402.38,3916.62c46.096,-84.287 160.521,-150.833 339.913,-197.379l503.333,-130.379l-6.508,-25.85l-503.35,130.604c-192.659,49.917 -312.938,119.829 -357.884,207.954c-45.191,88.35 -45.641,220.088 -1.354,391.163l265.713,1025.1c43.175,166.129 106.337,278.766 187.725,334.287c81.145,55.296 220.97,57.779 415.433,7.429l503.35,-130.396l-6.754,-25.854l-503.334,130.625c-183.437,47.417 -316.75,45.854 -395.658,-4.721c-78.904,-50.816 -139.825,-157.154 -181.196,-316.529l-265.712,-1025.12c-41.825,-161.629 -39.792,-286.404 6.283,-370.937m-34.617,-20.225c46.546,-91.058 169.271,-162.988 365.088,-213.783l508.729,-131.738c1.583,-0.45 3.163,-0.242 4.271,0.433c1.354,0.905 2.242,2.034 2.692,3.613l9.445,36.633c0.675,2.917 -1.112,6.075 -4.045,6.75l-508.734,131.963c-176.475,45.625 -288.421,110.141 -332.933,191.754c-44.738,81.825 -46.321,203.908 -5.175,362.829l265.729,1024.9c40.454,156.458 99.813,260.783 176.233,309.775c76.217,49.029 206.371,50.367 386.667,3.387l508.958,-131.737c1.355,-0.45 2.934,-0.225 4.271,0.45c1.129,0.887 2.034,2.017 2.484,3.596l9.445,36.65c0.9,2.916 -0.904,6.058 -4.045,6.733l-508.75,131.963c-93.284,24.062 -174.221,36.2 -242.78,36.2c-76.666,0 -137.358,-15.071 -181.65,-45.417c-83.833,-57.104 -148.366,-171.754 -192.204,-340.8l-265.712,-1025.12c-45.188,-173.766 -44.513,-307.987 2.016,-399.029" style="fill:#030405;fill-rule:nonzero;"/><path d="M6988.88,5149.67c15.275,59.341 41.354,99.133 77.55,118.245c36.2,19.342 85.658,21.13 147.033,5.4l612.359,-158.712c40.016,-10.558 72.62,-6.962 96.458,10.121c23.821,17.083 42.033,49.671 54.167,97.117l113.075,435.658c12.15,47.45 12.15,84.983 -0.225,111.287c-12.588,26.755 -39.342,45.417 -79.359,55.763l-743.42,192.867c-107.013,27.654 -205.696,41.595 -295.625,41.595c-123.871,0 -231.321,-26.304 -321.25,-78.908c-155.121,-90.379 -267.067,-265.05 -332.934,-519.304l-295.175,-1138.65c-65.866,-254.029 -53.054,-461.962 38.213,-617.533c91.283,-155.784 266.404,-268.196 520.658,-334.063l743.421,-192.658c40.033,-10.346 72.396,-6.979 96.458,10.329c23.596,16.875 41.804,49.688 54.167,97.121l114.879,442.879c12.154,47.433 12.154,84.983 -0.225,111.271c-12.588,26.525 -39.342,45.416 -79.358,55.762l-612.379,158.717c-61.13,15.954 -103.175,42.708 -124.759,79.562c-21.804,36.875 -24.946,85.663 -9.666,145l225.937,871.13Zm72.15,128.141c-38.871,-20.691 -66.754,-62.95 -82.95,-125.225l-225.921,-871.337c-16.179,-62.271 -12.587,-113.75 10.554,-153.334c23.388,-39.545 67.675,-68.104 131.755,-84.737l612.362,-158.717c36.875,-9.671 61.146,-26.3 72.171,-49.896c11.233,-23.837 11.004,-58.679 -0.679,-103.42l-114.65,-443.088c-11.705,-44.742 -28.563,-75.312 -49.917,-90.817c-13.037,-9.22 -29.217,-13.941 -48.104,-13.941c-11.913,0 -24.95,1.787 -39.117,5.383l-743.437,192.9c-251.092,64.963 -423.975,175.571 -513.68,328.663c-89.687,153.087 -102.291,357.879 -37.083,609.216l295.154,1138.42c65.209,251.321 175.35,423.767 327.779,512.554c152.413,89.025 357.205,101.163 608.542,35.971l743.213,-192.658c36.65,-9.442 60.921,-26.3 72.17,-49.688c11.23,-24.041 11.005,-58.887 -0.679,-103.625l-112.846,-435.679c-11.704,-44.737 -28.333,-75.312 -49.912,-90.816c-21.129,-15.296 -50.575,-17.984 -87.225,-8.542l-612.379,158.716c-64.063,16.634 -116.229,14.6 -155.121,-6.304" style="fill:#030405;fill-rule:nonzero;"/><path d="M5410.54,6192.08c2.916,-0.904 4.495,-4.046 3.608,-6.962l-110.833,-341.942c-0.9,-2.917 -4.063,-4.479 -6.979,-3.596l-30.121,9.896c-1.354,0.45 -2.484,1.354 -3.142,2.692c-0.675,1.354 -0.904,2.916 -0.45,4.271l110.833,341.716c0.45,1.563 1.563,2.692 2.917,3.371c0.675,0.45 1.579,0.675 2.463,0.675c0.679,0 1.129,-0.225 1.808,-0.45l29.896,-9.671Zm451.195,62.5c14.151,44.063 16.409,78.909 6.738,103.404c-9.671,24.288 -33.038,42.275 -69.013,53.959l-604.737,196.25c-36.2,11.7 -65.642,10.571 -87.45,-3.371c-22.479,-13.938 -40.9,-43.608 -55.292,-87.671l-236.721,-730.4c-14.391,-44.062 -16.65,-78.679 -6.754,-103.196c9.671,-24.271 32.829,-42.483 68.804,-54.166l604.946,-196.042c16.409,-5.379 31.475,-7.862 45.175,-7.862c16.196,0 30.363,3.608 42.275,11.25c22.254,14.166 40.921,43.608 55.067,87.67l236.962,730.175Z" style="fill:#fff;fill-rule:nonzero;"/><path d="M5373.42,6198.17l-110.834,-341.705c-0.45,-1.354 -0.225,-2.933 0.45,-4.27c0.679,-1.355 1.809,-2.255 3.142,-2.709l30.142,-9.875c2.916,-0.904 6.058,0.659 6.962,3.592l110.833,341.929c0.9,2.917 -0.679,6.075 -3.612,6.959l-29.896,9.67c-0.679,0.225 -1.112,0.454 -1.787,0.454c-0.905,0.001 -1.809,-0.229 -2.484,-0.679c-1.354,-0.675 -2.466,-1.804 -2.916,-3.366m-79.134,-345.975l-19.112,6.062l107.237,331.146l19.325,-6.304l-107.45,-330.904Z" style="fill:#030405;fill-rule:nonzero;"/><path d="M5198.08,6618.79c-17.533,5.85 -33.958,8.541 -48.783,8.541c-18.213,0 -34.392,-4.271 -48.108,-13.037c-24.513,-15.504 -44.738,-46.979 -59.792,-93.75l-236.946,-730.158c-15.066,-46.771 -17.308,-84.08 -6.525,-111.059c11.004,-27.429 36.65,-47.654 75.988,-60.466l604.725,-196.042c39.337,-12.813 71.941,-11.233 97.116,4.496c24.513,15.521 44.738,46.996 59.792,93.525l236.717,730.4c15.07,46.525 17.329,84.062 6.529,111.058c-11.009,27.413 -36.425,47.654 -75.988,60.45l-604.725,196.042Zm-389.583,-935.192c-9.896,24.496 -7.654,59.133 6.737,103.196l236.717,730.383c14.396,44.063 32.833,73.75 55.313,87.671c21.791,13.942 51.25,15.071 87.45,3.388l604.72,-196.267c35.975,-11.688 59.359,-29.671 69.013,-53.958c9.671,-24.5 7.429,-59.342 -6.737,-103.405l-236.946,-730.175c-14.167,-44.062 -32.829,-73.504 -55.084,-87.67c-11.912,-7.642 -26.079,-11.234 -42.258,-11.234c-13.717,0 -28.783,2.463 -45.192,7.863l-604.946,196.025c-35.975,11.7 -59.133,29.896 -68.787,54.183" style="fill:#030405;fill-rule:nonzero;"/><path d="M3793.5,6749.42c0.45,-1.355 0.45,-2.917 0,-4.5l-713.317,-1867.01l597.534,-228.404c2.708,-0.9 4.271,-4.271 3.162,-7.204l-13.491,-35.275c-0.45,-1.354 -1.58,-2.484 -2.934,-3.146c-1.337,-0.692 -2.916,-0.692 -4.271,0l-1234.86,471.633c-2.917,1.113 -4.271,4.271 -3.142,7.188l13.267,35.296c0.675,1.579 1.804,2.708 3.158,3.141c1.338,0.679 2.9,0.679 4.271,0.242l597.292,-228.175l713.541,1867.01c0.675,2.242 2.917,3.596 5.175,3.596c0.659,0 1.334,0 2.03,-0.225l29.445,-11.25c1.338,-0.679 2.463,-1.562 3.142,-2.916m391.613,64.512c16.633,43.383 20.679,78.004 12.137,102.967c-8.317,24.5 -30.575,43.837 -66.096,57.554l-476.354,181.858c-35.292,13.488 -64.754,13.942 -87.446,1.13c-22.933,-12.813 -43.179,-41.355 -59.583,-84.534l-662.725,-1734.83c-0.679,-1.354 -1.579,-2.467 -2.917,-2.916c-0.904,-0.455 -1.579,-0.68 -2.483,-0.68c-0.679,0 -1.354,0.225 -1.788,0.455l-432.308,165.224c-35.521,13.488 -64.967,13.942 -87.675,1.13c-22.933,-12.813 -42.933,-41.354 -59.583,-84.742l-163.213,-427.587c-16.633,-43.176 -20.675,-77.796 -12.133,-102.742c8.541,-24.721 30.796,-44.063 66.091,-57.554l1552.29,-593.038c35.521,-13.487 64.967,-13.942 87.675,-1.108c22.933,12.791 43.158,41.354 59.567,84.737l163.437,427.363c16.404,43.383 20.467,78.004 11.909,102.95c-8.317,24.512 -30.575,43.837 -66.096,57.325l-432.063,165.246c-1.354,0.45 -2.466,1.562 -3.162,2.916c-0.659,1.355 -0.659,2.934 -0.209,4.271l662.725,1734.6Z" style="fill:#fff;fill-rule:nonzero;"/><path d="M3667.38,4607l13.492,35.296c1.112,2.917 -0.45,6.304 -3.159,7.187l-597.537,228.405l713.316,1867.01c0.45,1.579 0.45,3.158 0,4.496c-0.675,1.354 -1.787,2.258 -3.141,2.933l-29.446,11.234c-0.675,0.225 -1.354,0.225 -2.029,0.225c-2.242,-0.001 -4.496,-1.355 -5.175,-3.592l-713.525,-1867.01l-597.309,228.175c-1.354,0.45 -2.933,0.45 -4.27,-0.225c-1.355,-0.45 -2.484,-1.579 -3.159,-3.141l-13.266,-35.313c-1.125,-2.917 0.229,-6.058 3.162,-7.187l1234.84,-471.634c1.354,-0.675 2.933,-0.675 4.287,0c1.338,0.659 2.467,1.788 2.917,3.142m-1223.4,501.771l597.533,-228.175c0.68,-0.225 1.355,-0.454 2.034,-0.454c0.658,0 1.562,0.229 2.237,0.454c1.354,0.658 2.483,1.787 2.933,3.141l713.3,1867.24l18.888,-7.188l-713.317,-1867.25c-0.45,-1.337 -0.45,-2.916 0.229,-4.254c0.45,-1.354 1.58,-2.483 3.142,-2.933l597.325,-228.179l-9.446,-24.946l-1224.3,467.829l9.446,24.721Z" style="fill:#030405;fill-rule:nonzero;"/><path d="M3497.21,7076.92l-660.712,-1729.43l-426.892,162.988c-38.679,14.825 -71.491,15.05 -97.137,0.45c-25.396,-14.167 -46.98,-44.512 -64.513,-90.379l-163.437,-427.588c-17.534,-45.85 -21.579,-82.933 -12.134,-110.383c9.442,-27.863 33.938,-49.671 72.621,-64.288l1552.5,-593.262c38.438,-14.604 71.267,-14.846 96.892,-0.438c25.417,14.375 47.204,44.725 64.737,90.592l163.213,427.363c17.537,45.85 21.579,82.95 12.137,110.587c-9.429,27.883 -33.941,49.463 -72.604,64.308l-426.912,163.213l660.712,1729.2c17.538,45.85 21.579,83.175 12.138,110.608c-9.446,27.863 -33.942,49.688 -72.604,64.288l-476.371,182.1c-19.55,7.412 -37.554,11.233 -53.959,11.233c-15.958,0 -30.35,-3.596 -43.162,-10.783c-25.171,-14.167 -46.979,-44.513 -64.513,-90.379m70.138,80.483c22.708,12.812 52.154,12.362 87.45,-1.125l476.371,-181.858c35.521,-13.717 57.758,-33.059 66.075,-57.555c8.541,-24.962 4.516,-59.583 -12.134,-102.966l-662.725,-1734.6c-0.454,-1.354 -0.454,-2.917 0.225,-4.271c0.675,-1.354 1.788,-2.483 3.159,-2.938l432.066,-165.225c35.521,-13.487 57.78,-32.812 66.092,-57.325c8.542,-24.95 4.5,-59.583 -11.908,-102.97l-163.438,-427.342c-16.425,-43.388 -36.65,-71.946 -59.583,-84.758c-22.692,-12.813 -52.154,-12.359 -87.675,1.129l-1552.27,593.037c-35.312,13.492 -57.554,32.829 -66.096,57.554c-8.541,24.946 -4.496,59.567 12.138,102.725l163.208,427.588c16.633,43.383 36.65,71.942 59.567,84.754c22.708,12.813 52.154,12.363 87.675,-1.125l432.308,-165.229c0.45,-0.225 1.113,-0.45 1.804,-0.45c0.888,0 1.563,0.225 2.467,0.679c1.354,0.45 2.242,1.563 2.917,2.917l662.725,1734.83c16.425,43.158 36.65,71.716 59.583,84.529" style="fill:#030405;fill-rule:nonzero;"/></g><path d="M3043.54,4880.12c0.679,0 1.562,0.225 2.241,0.45c1.355,0.663 2.484,1.792 2.934,3.146l713.3,1867.24l18.887,-7.187l-713.317,-1867.26c-0.45,-1.334 -0.45,-2.896 0.226,-4.25c0.454,-1.355 1.579,-2.484 3.162,-2.938l597.308,-228.175l-9.445,-24.95l-1224.31,467.833l9.442,24.721l597.538,-228.179c0.675,-0.225 1.354,-0.45 2.029,-0.45Z" style="fill:none;fill-rule:nonzero;stroke:#030405;stroke-width:34.71px;"/><path d="M5382.42,6189.38l-107.225,-331.108l19.337,-6.263l107.225,331.109l-19.337,6.262Z" style="fill:none;stroke:#030405;stroke-width:34.71px;"/><path d="M7239.08,3563l-503.35,130.608c-192.658,49.913 -312.933,119.825 -357.883,207.95c-45.192,88.35 -45.642,220.088 -1.354,391.163l265.729,1025.12c43.158,166.112 106.338,278.75 187.708,334.27c81.146,55.313 220.992,57.78 415.434,7.434l503.35,-130.4l-6.75,-25.85l-503.334,130.625c-183.437,47.429 -316.754,45.85 -395.662,-4.725c-78.904,-50.817 -139.825,-157.15 -181.196,-316.525l-265.712,-1025.12c-41.825,-161.629 -39.792,-286.404 6.283,-370.938c46.096,-84.287 160.521,-150.833 339.912,-197.358l503.334,-130.4l-6.509,-25.85Z" style="fill:none;fill-rule:nonzero;stroke:#030405;stroke-width:34.71px;"/><path d="M9042.96,5267.71l-65.646,-341.95l20.013,-3.841l65.646,341.95l-20.013,3.841Z" style="fill:none;stroke:#030405;stroke-width:34.71px;"/><path d="M11296.2,2900.25l125.208,1566.67c11.908,148.612 64.983,267.516 157.813,353.404c92.62,85.867 262.133,119.6 504.254,100.033c241.891,-19.321 404.633,-79.583 483.558,-178.941c78.904,-99.601 113.071,-225.484 101.146,-374.305l-125.208,-1566.44l-20,1.787l124.983,1566.46c11.458,141.408 -22.033,260.991 -99.358,355.191c-77.325,94.184 -234.705,151.304 -467.38,169.95c-232.675,18.438 -396.337,-13.037 -486.7,-93.75c-90.158,-80.696 -141.633,-193.558 -153.091,-335.175l-125,-1566.46l-20.225,1.579Z" style="fill:none;fill-rule:nonzero;stroke:#030405;stroke-width:34.71px;"/><path d="M14427.7,5163.62l-0.241,0" style="fill:none;fill-rule:nonzero;stroke:#030405;stroke-width:8.67px;stroke-linecap:round;stroke-linejoin:round;stroke-miterlimit:4;"/><path d="M15328.5,4834.71l20.225,0.454l46.979,-2030.45l-20.225,-0.675l-36.875,1590.05c0,2.484 -1.563,4.496 -3.817,5.175c-2.466,0.675 -4.95,0 -6.287,-2.033l-1121.56,-1592.06c-9.896,-12.362 -17.983,-21.129 -23.837,-26.079c-4.946,-4.271 -11.23,-6.525 -18.192,-6.733l-0.454,0c-6.959,0 -13.959,3.142 -21.354,9.425c-7.188,6.304 -11.021,15.954 -11.25,29.671l-46.075,1994.48l20.225,0.45l45.87,-1987.05c0,-3.162 0.884,-6.529 2.238,-9.671c2.033,-4.496 5.4,-6.754 10.104,-6.962c3.388,0 6.979,1.787 11.25,5.154c3.158,2.917 6.075,5.625 8.317,8.542l1152.59,1630.98c0.675,1.129 1.129,2.237 1.129,3.366l-8.995,383.975Z" style="fill:none;fill-rule:nonzero;stroke:#030405;stroke-width:34.71px;"/><path d="M16637.3,4954.75l982.413,120.275l3.142,-26.525l-472.325,-57.779c-1.563,0 -2.917,-0.904 -3.821,-2.029c-0.904,-1.113 -1.338,-2.692 -1.129,-4.046l238.75,-1952.23c0.225,-1.333 0.904,-2.688 2.033,-3.592c1.354,-0.887 2.917,-1.337 4.271,-1.337l472.325,58.004l3.35,-26.529l-982.396,-120.05l-3.158,26.3l478.629,58.683c1.579,0 2.916,0.883 3.816,2.013c0.888,1.129 1.355,2.708 1.13,4.045l-238.75,1952.22c-0.225,1.354 -1.113,2.692 -2.259,3.596c-1.108,0.9 -2.687,1.354 -4.025,1.125l-478.629,-58.454l-3.367,26.304Z" style="fill:none;fill-rule:nonzero;stroke:#030405;stroke-width:34.71px;"/><path d="M19353.5,5413.12l19.792,4.5l428.7,-1952.45c0.225,-1.337 1.108,-2.692 2.238,-3.367c1.354,-0.904 2.933,-1.129 4.27,-0.904l624.742,137.138l5.625,-25.854l-1280.05,-281.005l-5.625,25.85l624.742,137.134c2.916,0.679 4.72,3.596 4.27,6.737l-428.7,1952.22Z" style="fill:none;fill-rule:nonzero;stroke:#030405;stroke-width:34.71px;"/><path d="M21181.1,5905.71l998.142,323.717l8.316,-25.4l-973.629,-315.625c-2.916,-0.904 -4.721,-4.046 -3.591,-6.963l301.908,-931.82c0.454,-1.355 1.337,-2.709 2.692,-3.388c1.354,-0.658 2.916,-0.658 4.287,-0.208l731.288,236.946l8.07,-25.417l-731.058,-236.946c-1.579,-0.45 -2.692,-1.337 -3.367,-2.692c-0.662,-1.354 -0.662,-2.916 -0.229,-4.27l292.692,-903.055c0.904,-2.916 4.062,-4.479 6.979,-3.591l973.629,315.625l8.317,-25.4l-998.35,-323.492l-626.096,1931.98Z" style="fill:none;fill-rule:nonzero;stroke:#030405;stroke-width:34.71px;"/><path d="M23425.4,6686.46l663.404,291.354c91.267,40.017 170.625,61.825 235.817,64.742c64.967,2.934 121.387,-7.866 167.708,-31.929c46.546,-24.046 87.221,-60.921 120.713,-109.479c34.183,-49.217 65.208,-105.434 92.187,-166.804l403.071,-917.659c26.962,-61.595 47.204,-123.191 59.792,-183.208c12.587,-59.133 12.379,-115.333 -0.9,-167.258c-13.267,-51.475 -43.163,-101.388 -88.563,-148.367c-45.867,-47.433 -114.425,-91.063 -203.454,-130.4l-663.4,-291.338l-786.375,1790.35Z" style="fill:none;fill-rule:nonzero;stroke:#030405;stroke-width:34.71px;"/><path d="M16983.7,24318.6c0,1796.51 -1456.35,3252.85 -3252.85,3252.85c-1796.49,0 -3252.85,-1456.33 -3252.85,-3252.85c0,-1796.49 1456.35,-3252.83 3252.85,-3252.83c1796.49,0 3252.85,1456.34 3252.85,3252.83" style="fill:#fff;fill-rule:nonzero;"/><path d="M14670,25887.2c-214.809,71.2 -429.204,142.379 -644.013,213.579c-42.966,14.321 -85.921,29.858 -128.471,44.6c-188.229,65.867 -188.229,66.267 -188.229,269.633c0,217.675 0,435.367 -0.4,653.038c0,37.225 -4.096,74.462 -8.575,146.875c-92.066,-105.971 -166.962,-184.946 -233.246,-270.467c-126.841,-162.829 -245.887,-331.825 -376.008,-491.387c-22.1,-27.417 -88.404,-39.292 -126.442,-29.046c-276.195,76.108 -550.329,159.983 -825.295,240.571c-19.217,5.729 -39.671,6.145 -96.13,14.741c57.675,-76.929 97.38,-130.121 136.65,-183.317c103.109,-138.7 205.4,-277.812 309.342,-415.695c30.675,-40.921 61.771,-81.838 92.863,-122.342c46.233,-60.158 41.754,-110.071 0,-168.579c-21.684,-30.275 -43.367,-60.554 -65.034,-90.834c-133.404,-185.745 -265.154,-372.741 -397.308,-559.32c-25.783,-36.825 -48.7,-76.113 -62.204,-135.017c167.758,52.358 335.921,103.525 502.862,158.333c126.442,41.338 252.867,83.888 376.825,132.567c62.621,24.567 106.821,14.342 146.092,-37.638c152.621,-200.487 305.625,-400.57 458.246,-600.641c27.016,-35.609 53.195,-71.617 80.229,-107.604c9.808,2.029 19.6,3.679 29.442,5.295c7.362,93.713 17.187,186.58 21.683,280.296c8.996,206.613 17.587,413.246 22.083,620.275c1.25,56.459 15.142,85.938 73.25,104.759c188.209,60.554 375.604,123.958 563,187.379c68.334,23.333 136.271,46.65 204.604,69.566c44.98,15.138 89.6,29.859 134.184,70.38" style="fill:#dfb525;fill-rule:nonzero;"/><path d="M16600.8,24557c-182.483,-8.196 -364.95,-16.354 -547.846,-24.95c-136.249,-6.146 -272.899,-17.604 -409.166,-15.554c-32.313,0.4 -78.163,40.504 -93.7,73.246c-127.275,265.537 -248.367,533.958 -371.529,800.729c-5.73,12.275 -16.355,21.683 -30.675,40.504c-11.875,-24.967 -23.75,-41.737 -27.83,-60.142c-62.587,-276.612 -126.858,-552.791 -183.7,-830.604c-15.554,-76.512 -61.804,-81.025 -120.329,-86.321c-299.062,-27.012 -598.575,-55.679 -897.675,-83.908c-9.825,-0.796 -19.65,-5.313 -57.687,-38.037c21.666,-7.775 45.396,-12.671 65.05,-24.15c257.762,-154.65 515.537,-308.505 770.85,-466.838c25.8,-15.954 51.562,-64.238 46.25,-91.65c-48.296,-247.554 -103.921,-493.054 -156.3,-739.775c-11.458,-54.008 -18.404,-108.837 -32.725,-195.571c208.662,167.342 397.708,310.538 576.492,465.188c197.637,171.458 194.775,178.004 422.237,49.133c198.058,-112.117 393.629,-229.55 590.854,-344.133c26.179,-15.138 54.425,-26.179 108,-52.359c-26.996,78.959 -42.95,134.617 -65.033,188.213c-97.379,235.275 -198.854,469.321 -291.738,706.629c-11.041,29.046 8.596,87.971 33.959,110.871c202.954,183.312 410.8,360.883 617.016,540.5c20.867,18.004 40.938,36.825 55.225,78.979" style="fill:#dfb525;fill-rule:nonzero;"/><path d="M13621.3,24210.8c3.684,8.196 -1.212,19.655 -4.096,45.417c-269.637,-146.892 -534.358,-286.404 -793.35,-436.162c-73.662,-42.55 -122.745,-44.184 -186.183,9.412c-201.3,168.992 -405.483,334.288 -608.417,500.813c-29.045,24.133 -58.508,47.883 -112.937,62.604c20.871,-91.25 40.504,-182.479 62.604,-273.313c48.283,-200.904 100.646,-401.392 144.029,-603.108c6.129,-29.046 -17.187,-81.842 -43.383,-98.196c-258.996,-164.896 -522.067,-324.063 -783.542,-485.279c-16.754,-10.225 -31.496,-23.313 -69.133,-50.729c168.975,-19.234 313.421,-39.271 458.262,-50.73c160.784,-13.104 321.996,-19.65 483.213,-26.195c94.512,-4.08 130.537,-59.325 149.758,-144.03c60.154,-265.537 124.392,-530.275 187.796,-795.4c2.063,-9.408 9.425,-18.02 24.963,-45.016c22.916,40.087 42.137,69.15 57.291,100.246c110.054,230.762 223.388,460.312 326.513,694.337c45,101.892 114.546,114.183 209.896,103.125c250.4,-28.646 501.629,-53.212 752.445,-78.142c29.88,-2.862 60.559,-0.433 90.834,-0.433c4.1,9.408 8.179,18.838 12.675,28.246c-197.204,178.404 -393.196,357.604 -591.65,533.958c-166.092,147.692 -158.35,146.059 -57.675,347.379c107.187,215.226 194.758,440.242 290.087,661.196" style="fill:#dfb525;fill-rule:nonzero;"/></g></svg>